<?xml version="1.0" encoding="UTF-8" standalone="no"?>
<!-- Created with Inkscape (http://www.inkscape.org/) -->

<svg
   xmlns:dc="http://purl.org/dc/elements/1.1/"
   xmlns:cc="http://creativecommons.org/ns#"
   xmlns:rdf="http://www.w3.org/1999/02/22-rdf-syntax-ns#"
   xmlns:svg="http://www.w3.org/2000/svg"
   xmlns="http://www.w3.org/2000/svg"
   xmlns:xlink="http://www.w3.org/1999/xlink"
   xmlns:sodipodi="http://sodipodi.sourceforge.net/DTD/sodipodi-0.dtd"
   xmlns:inkscape="http://www.inkscape.org/namespaces/inkscape"
   width="1600"
   height="1200"
   id="svg2"
   version="1.1"
   inkscape:version="0.47 r22583"
   sodipodi:docname="cave2.svg">
  <defs
     id="defs4">
    <linearGradient
       id="linearGradient3887">
      <stop
         style="stop-color:#ffffff;stop-opacity:1;"
         offset="0"
         id="stop3889" />
      <stop
         style="stop-color:#000000;stop-opacity:1;"
         offset="1"
         id="stop3891" />
    </linearGradient>
    <inkscape:path-effect
       effect="skeletal"
       id="path-effect3017"
       is_visible="true"
       pattern="m -196.85526,495.89308 a 280,280 0 0 1 -560,0 280,280 0 1 1 560,0 z"
       copytype="single_stretched"
       prop_scale="1"
       scale_y_rel="false"
       spacing="0"
       normal_offset="0"
       tang_offset="0"
       prop_units="false"
       vertical_pattern="false"
       fuse_tolerance="0" />
    <inkscape:perspective
       sodipodi:type="inkscape:persp3d"
       inkscape:vp_x="0 : 526.18109 : 1"
       inkscape:vp_y="0 : 1000 : 0"
       inkscape:vp_z="744.09448 : 526.18109 : 1"
       inkscape:persp3d-origin="372.04724 : 350.78739 : 1"
       id="perspective10" />
    <inkscape:perspective
       id="perspective2884"
       inkscape:persp3d-origin="0.5 : 0.33333333 : 1"
       inkscape:vp_z="1 : 0.5 : 1"
       inkscape:vp_y="0 : 1000 : 0"
       inkscape:vp_x="0 : 0.5 : 1"
       sodipodi:type="inkscape:persp3d" />
    <inkscape:perspective
       id="perspective2843"
       inkscape:persp3d-origin="0.5 : 0.33333333 : 1"
       inkscape:vp_z="1 : 0.5 : 1"
       inkscape:vp_y="0 : 1000 : 0"
       inkscape:vp_x="0 : 0.5 : 1"
       sodipodi:type="inkscape:persp3d" />
    <inkscape:perspective
       id="perspective2857"
       inkscape:persp3d-origin="0.5 : 0.33333333 : 1"
       inkscape:vp_z="1 : 0.5 : 1"
       inkscape:vp_y="0 : 1000 : 0"
       inkscape:vp_x="0 : 0.5 : 1"
       sodipodi:type="inkscape:persp3d" />
    <inkscape:perspective
       id="perspective2857-0"
       inkscape:persp3d-origin="0.5 : 0.33333333 : 1"
       inkscape:vp_z="1 : 0.5 : 1"
       inkscape:vp_y="0 : 1000 : 0"
       inkscape:vp_x="0 : 0.5 : 1"
       sodipodi:type="inkscape:persp3d" />
    <inkscape:perspective
       id="perspective2857-8"
       inkscape:persp3d-origin="0.5 : 0.33333333 : 1"
       inkscape:vp_z="1 : 0.5 : 1"
       inkscape:vp_y="0 : 1000 : 0"
       inkscape:vp_x="0 : 0.5 : 1"
       sodipodi:type="inkscape:persp3d" />
    <inkscape:perspective
       id="perspective2857-6"
       inkscape:persp3d-origin="0.5 : 0.33333333 : 1"
       inkscape:vp_z="1 : 0.5 : 1"
       inkscape:vp_y="0 : 1000 : 0"
       inkscape:vp_x="0 : 0.5 : 1"
       sodipodi:type="inkscape:persp3d" />
    <inkscape:perspective
       id="perspective2857-08"
       inkscape:persp3d-origin="0.5 : 0.33333333 : 1"
       inkscape:vp_z="1 : 0.5 : 1"
       inkscape:vp_y="0 : 1000 : 0"
       inkscape:vp_x="0 : 0.5 : 1"
       sodipodi:type="inkscape:persp3d" />
    <inkscape:perspective
       id="perspective2870"
       inkscape:persp3d-origin="0.5 : 0.33333333 : 1"
       inkscape:vp_z="1 : 0.5 : 1"
       inkscape:vp_y="0 : 1000 : 0"
       inkscape:vp_x="0 : 0.5 : 1"
       sodipodi:type="inkscape:persp3d" />
    <radialGradient
       inkscape:collect="always"
       xlink:href="#linearGradient3887"
       id="radialGradient3893"
       cx="913.58197"
       cy="683.81207"
       fx="913.58197"
       fy="683.81207"
       r="347.89655"
       gradientUnits="userSpaceOnUse" />
  </defs>
  <sodipodi:namedview
     id="base"
     pagecolor="#000000"
     bordercolor="#666666"
     borderopacity="1.0"
     inkscape:pageopacity="1"
     inkscape:pageshadow="2"
     inkscape:zoom="2"
     inkscape:cx="1453.9063"
     inkscape:cy="770.01186"
     inkscape:document-units="px"
     inkscape:current-layer="layer1"
     showgrid="false"
     showguides="true"
     inkscape:guide-bbox="true"
     inkscape:window-width="1680"
     inkscape:window-height="968"
     inkscape:window-x="0"
     inkscape:window-y="25"
     inkscape:window-maximized="1" />
  <metadata
     id="metadata7">
    <rdf:RDF>
      <cc:Work
         rdf:about="">
        <dc:format>image/svg+xml</dc:format>
        <dc:type
           rdf:resource="http://purl.org/dc/dcmitype/StillImage" />
      </cc:Work>
    </rdf:RDF>
  </metadata>
  <g
     inkscape:label="Ebene 1"
     inkscape:groupmode="layer"
     id="layer1"
     transform="translate(0,147.63782)">
    <path
       sodipodi:type="arc"
       style="fill:url(#radialGradient3893);fill-opacity:1;stroke:none;opacity:0.67477204"
       id="path2907"
       sodipodi:cx="913.58197"
       sodipodi:cy="683.81207"
       sodipodi:rx="347.89655"
       sodipodi:ry="347.89655"
       d="m 1261.4785,683.81207 a 347.89655,347.89655 0 1 1 -695.79308,0 347.89655,347.89655 0 1 1 695.79308,0 z"
       transform="translate(6,-147.63782)"
       inkscape:label="#gravpoint" />
    <rect
       style="fill:#0000ff;fill-opacity:1;stroke:none"
       id="start"
       width="15.829659"
       height="13.25734"
       x="1449.4825"
       y="197.49217"
       inkscape:label="#start" />
    <path
       inkscape:label="#cargo"
       d="m 1025.3048,740.40356 a 9.5964489,9.5964489 0 1 1 -19.1929,0 9.5964489,9.5964489 0 1 1 19.1929,0 z"
       sodipodi:ry="9.5964489"
       sodipodi:rx="9.5964489"
       sodipodi:cy="740.40356"
       sodipodi:cx="1015.7084"
       id="cargo2"
       style="fill:#00ff00;fill-opacity:1;stroke:none"
       sodipodi:type="arc"
       transform="translate(489.01486,286.50277)" />
    <path
       inkscape:label="#cargo"
       d="m 1025.3048,740.40356 a 9.5964489,9.5964489 0 1 1 -19.1929,0 9.5964489,9.5964489 0 1 1 19.1929,0 z"
       sodipodi:ry="9.5964489"
       sodipodi:rx="9.5964489"
       sodipodi:cy="740.40356"
       sodipodi:cx="1015.7084"
       id="cargo2-2"
       style="fill:#00ff00;fill-opacity:1;stroke:none"
       sodipodi:type="arc"
       transform="translate(54.851292,283.67434)" />
    <path
       inkscape:label="#cargo"
       d="m 1025.3048,740.40356 a 9.5964489,9.5964489 0 1 1 -19.1929,0 9.5964489,9.5964489 0 1 1 19.1929,0 z"
       sodipodi:ry="9.5964489"
       sodipodi:rx="9.5964489"
       sodipodi:cy="740.40356"
       sodipodi:cx="1015.7084"
       id="cargo2-7"
       style="fill:#00ff00;fill-opacity:1;stroke:none"
       sodipodi:type="arc"
       transform="translate(-311.43002,285.08856)" />
    <path
       inkscape:label="#cargo"
       d="m 1025.3048,740.40356 a 9.5964489,9.5964489 0 1 1 -19.1929,0 9.5964489,9.5964489 0 1 1 19.1929,0 z"
       sodipodi:ry="9.5964489"
       sodipodi:rx="9.5964489"
       sodipodi:cy="740.40356"
       sodipodi:cx="1015.7084"
       id="cargo2-3"
       style="fill:#00ff00;fill-opacity:1;stroke:none"
       sodipodi:type="arc"
       transform="translate(-816.30426,287.91698)" />
    <path
       inkscape:label="#cargo"
       d="m 1025.3048,740.40356 a 9.5964489,9.5964489 0 1 1 -19.1929,0 9.5964489,9.5964489 0 1 1 19.1929,0 z"
       sodipodi:ry="9.5964489"
       sodipodi:rx="9.5964489"
       sodipodi:cy="740.40356"
       sodipodi:cx="1015.7084"
       id="cargo2-0"
       style="fill:#00ff00;fill-opacity:1;stroke:none"
       sodipodi:type="arc"
       transform="translate(-957.72562,-461.6162)" />
    <path
       inkscape:label="#sentinel"
       d="m 1520,760 a 280,280 0 1 1 -560,0 280,280 0 1 1 560,0 z"
       sodipodi:ry="280"
       sodipodi:rx="280"
       sodipodi:cy="760"
       sodipodi:cx="1240"
       id="path2834"
       style="opacity:0.6;fill:#00ff00;fill-opacity:1;stroke:none"
       sodipodi:type="arc"
       transform="translate(-820,-564)" />
    <path
       style="fill:#662222;fill-opacity:1;stroke:none"
       d="m 923.5689,488.47661 -30.27044,12.38699 -21.70568,13.74001 5.71514,40.11985 43.37264,17.0862 36.5892,-16.03606 2.33936,-28.90259 -4.63089,-28.43791 -31.40933,-9.95649 z"
       id="path3885"
       inkscape:label="#scene" />
    <path
       style="fill:#444444;fill-opacity:1;stroke:#e0e0e0;stroke-opacity:1"
       d="m 962.57144,182.81122 -66.27857,-13.32145 -48.72143,-3.94575 -57.87122,-5.0082 -49.62878,-17.66899 -33.65204,-41.92002 27.58469,-28.832656 44.01813,-14.79268 59.13001,-19.93512 66.91921,-21.53958 41.89408,2.55048 80.83038,27.5258 18.3137,46.51056 4.5432,40.377156 -87.08136,50.00045 z"
       id="path3883"
       inkscape:label="#scene" />
    <path
       style="fill:#444444;fill-opacity:1;stroke:#e0e0e0;stroke-opacity:1"
       d="m 223.07146,208.86814 -83.5,-20.32349 -50.000003,-10.00088 -41.3476,12.41965 -43.7408,14.45077 -2.9115999,-0.63949 0,-350.84109 405.8042029,0 -1.4021,4.65893 50.5966,59.843184 70.50128,23.54169 37.78627,55.7410403 -16.76446,54.2151597 -9.31628,38 -49.70551,42.461586 -64.5569,66.56743 -57.995,-7.4452 -67.9481,16.05571 -75.5,1.295 z"
       id="path3881"
       inkscape:label="#scene" />
    <path
       style="fill:#444444;fill-opacity:1;stroke:#e0e0e0;stroke-opacity:1"
       d="m 513.57144,660.87804 -63.05878,-24.68162 -23.9463,-37.27786 -8.5001,-45.48495 -12.0507,-63.79105 -2.6762,-57.97427 85.8365,-52.37084 58.57569,15.75166 25.59936,10.67633 6.91925,1.69862 -3.88797,11.50478 -17.01366,77.50477 0,75 16.59625,76.24775 3.4728,10.24774 -2.18307,0.51642 -34.18307,2.96618 -29.5,-0.53366 z"
       id="path3879"
       inkscape:label="#scene" />
    <path
       style="fill:#444444;fill-opacity:1;stroke:#e0e0e0;stroke-opacity:1"
       d="m 2.4163571,449.48361 5.9600999,8.45 52.695,49.39636 62.139603,36.69783 27.8604,43.86691 -38,54.56717 -38.330703,39.75183 -26.5245,46.7199 -39.3948,27.5535 -7.2499999,2.2917 0.8449,-309.2952 z"
       id="path3877"
       inkscape:label="#scene" />
    <path
       style="fill:#444444;fill-opacity:1;stroke:#e0e0e0;stroke-opacity:1"
       d="m 1505.0714,775.85741 -84.0648,-43.4238 -15.9352,-31.5 15.7207,-47.34775 6.8982,-63.90404 -21.6248,-42.49162 -52.3265,-23.72421 -73.8977,-25.4299 -22.7736,-95.10248 -72.5547,-115.51911 -20.8232,-25.99768 216.1908,-45.43866 148.9408,-4.85511 72.75,-41.41644 0,588.727 -96.4903,17.4238 -0.01,0 3e-4,0 z"
       id="path3875"
       inkscape:label="#scene"
       sodipodi:nodetypes="cccccccccccccccccc" />
    <path
       style="fill:#000000;fill-opacity:1;stroke:#e0e0e0;stroke-opacity:1"
       d="m 1590.018,1047.7026 11.5089,-72.26899 0.022,39.24999 0.022,39.25 -11.5534,-6.231 5e-4,0 z"
       id="path3873"
       inkscape:label="#scene" />
    <path
       style="fill:#444444;fill-opacity:1;stroke:#e0e0e0;stroke-opacity:1"
       d="m 1191.4674,1049.2825 -3.5822,-52.96409 -0.475,-55.2672 -97.9314,-27.8774 -17.9074,-49.7712 74,-46.6753 65.7514,-68.5127 17.3959,22.2763 60.2435,34.3212 37.6092,18.3117 44.5694,45.3098 5.4576,46.4489 9.9622,63.5511 8.8252,67.49999 -1.3144,7.5 -199.3973,0.5096 -3.2067,-4.6607 z"
       id="path3871"
       inkscape:label="#scene" />
    <path
       style="fill:#444444;fill-opacity:1;stroke:#e0e0e0;stroke-opacity:1"
       d="m 798.04605,1049.6836 -28.22744,-62.64049 21.21241,-48.3048 25.34051,-57.607 102.69991,14.2844 71.13798,-6.1325 16.57648,46.476 -62.70658,52.8055 30.49212,53.28899 41.49996,11.9426 -217.32416,0.1373 -0.70119,-4.25 z"
       id="path3869"
       inkscape:label="#scene" />
    <path
       style="fill:#444444;fill-opacity:1;stroke:#e0e0e0;stroke-opacity:1"
       d="m 332.60916,1049.3587 -9.0483,-31.558 21.2729,-73.36709 -6.1675,-42.0959 -43.1388,-58.4041 -26.5694,-36.1626 7.951,-24.4667 80.6624,-40.8508 49.5,10.9562 29,19.6265 117.68804,78.3267 108.81194,31.0545 23.86311,12.132 -24.17546,47.3081 -25.24165,49.2463 -21.92727,60.57979 0.71453,2.25 -278.97854,0 -4.217,-4.5749 z"
       id="path3867"
       inkscape:label="#scene" />
    <path
       style="fill:#444444;fill-opacity:1;stroke:#e0e0e0;stroke-opacity:1"
       d="m 1.9375571,899.93361 43.0670999,15.004 57.329703,30.853 -2.5413,29.3887 -72.295103,70.34509 -12.5735,8.4092 -6.6765,0 -6.6764999,0 0.3661,-153.99999 z"
       id="path3798"
       inkscape:label="#scene" />
  </g>
</svg>
