<?xml version="1.0" encoding="UTF-8" standalone="no"?>
<!-- Created with Inkscape (http://www.inkscape.org/) -->

<svg
   xmlns:dc="http://purl.org/dc/elements/1.1/"
   xmlns:cc="http://creativecommons.org/ns#"
   xmlns:rdf="http://www.w3.org/1999/02/22-rdf-syntax-ns#"
   xmlns:svg="http://www.w3.org/2000/svg"
   xmlns="http://www.w3.org/2000/svg"
   xmlns:sodipodi="http://sodipodi.sourceforge.net/DTD/sodipodi-0.dtd"
   xmlns:inkscape="http://www.inkscape.org/namespaces/inkscape"
   width="2400"
   height="1500"
   id="svg2"
   version="1.1"
   inkscape:version="0.47 r22583"
   sodipodi:docname="cave.svg">
  <defs
     id="defs4">
    <inkscape:perspective
       sodipodi:type="inkscape:persp3d"
       inkscape:vp_x="0 : 526.18109 : 1"
       inkscape:vp_y="0 : 1000 : 0"
       inkscape:vp_z="744.09448 : 526.18109 : 1"
       inkscape:persp3d-origin="372.04724 : 350.78739 : 1"
       id="perspective10" />
    <inkscape:perspective
       id="perspective3041"
       inkscape:persp3d-origin="0.5 : 0.33333333 : 1"
       inkscape:vp_z="1 : 0.5 : 1"
       inkscape:vp_y="0 : 1000 : 0"
       inkscape:vp_x="0 : 0.5 : 1"
       sodipodi:type="inkscape:persp3d" />
    <inkscape:perspective
       id="perspective3672"
       inkscape:persp3d-origin="0.5 : 0.33333333 : 1"
       inkscape:vp_z="1 : 0.5 : 1"
       inkscape:vp_y="0 : 1000 : 0"
       inkscape:vp_x="0 : 0.5 : 1"
       sodipodi:type="inkscape:persp3d" />
  </defs>
  <sodipodi:namedview
     id="base"
     pagecolor="#ffffff"
     bordercolor="#666666"
     borderopacity="1.0"
     inkscape:pageopacity="0.0"
     inkscape:pageshadow="2"
     inkscape:zoom="0.49497474"
     inkscape:cx="2500.3009"
     inkscape:cy="940.40284"
     inkscape:document-units="px"
     inkscape:current-layer="layer1"
     showgrid="false"
     width="1000px"
     inkscape:window-width="1680"
     inkscape:window-height="968"
     inkscape:window-x="0"
     inkscape:window-y="25"
     inkscape:window-maximized="1" />
  <metadata
     id="metadata7">
    <rdf:RDF>
      <cc:Work
         rdf:about="">
        <dc:format>image/svg+xml</dc:format>
        <dc:type
           rdf:resource="http://purl.org/dc/dcmitype/StillImage" />
        <dc:title />
      </cc:Work>
    </rdf:RDF>
  </metadata>
  <g
     inkscape:label="Ebene 1"
     inkscape:groupmode="layer"
     id="layer1"
     transform="translate(0,750)">
    <path
       style="fill:#000000"
       d="m 5.42858,3.7688889 0,-746.7361089 1194.77782,0 1194.7778,0 0,746.7361089 0,746.7362111 -1194.7778,0 -1194.77782,0 0,-746.7362111 z m 445.09389,736.2052411 39.45449,-23.64087 78.42227,4.06424 33.5077,8.07331 26.00302,13.10114 61.57758,-5.107 64.24995,10.05756 92.41112,-5.02878 45.25713,-0.38197 45.94952,-5.25503 44.80416,4.83028 112.01039,5.29187 69.9102,-12.60518 8.2652,-60.86274 -23.3252,-51.16556 -12.6198,-34.59334 -23.0496,-72.73757 46.0586,-69.17337 142.5218,-141.97397 82.4703,-51.05829 101.5561,-50.69745 105.5387,-18.12309 148.5093,-44.92832 75.8766,-78.06688 3.6044,-14.171877 -11.2201,-14.0227 -12.735,-29.9375112 9.8461,-38.9231798 63.9046,-37.921187 65.4274,-30.802905 70.046,1.16447 49.1078,26.779033 60.2174,99.179559 19.9946,50.693485 7.3178,8.403569 11.3247,78.647864 -23.6476,63.3325 -21.2388,2.40803 -40.4154,-7.56109 -88.6126,49.39082 -106.5344,70.80199 -104.5431,68.17996 -122.1333,103.70028 -80.7521,91.63447 -2.2869,32.68216 78.1724,16.13356 94.0761,36.95328 55.1266,41.80641 26.7457,9.80928 276.8067,11.12506 235.5708,-5.97282 45.5582,-12.11231 -7.7318,-34.38328 -51.6875,-28.78431 -76.1804,1.51122 -29.4728,-13.86148 -8.6744,-40.87615 20.8002,-52.67132 79.9942,-82.96497 82.4705,-86.29532 6.9564,-13.93907 -0.5392,-62.67991 -0.5393,-62.6799 -10.9521,-2.64514 -43.3105,-3.03288 -32.3586,-0.38773 -7.9803,-70.35241 16.2685,-88.748138 13.6161,-3.96718 60.0019,-37.736578 5.7109,-23.585909 -8.7922,-34.051087 0.038,-68.595618 8.7544,-8.429495 0,-136.437315 -7.0932,-85.1437 -20.7222,-27.26473 -44.5119,-15.85325 -103.776,-49.6475 -32.7945,-60.03493 52.9819,-49.54865 76.4526,-68.65701 35.2097,-82.88106 -89.5121,-38.38122 -333.9114,-26.31215 -521.3794,1.50555 -614.91472,8.54585 -396.08236,-10.15865 19.03249,65.50843 59.51881,25.13138 173.36796,11.26752 171.35642,30.37689 199.7486,50.35637 148.4551,6.10309 67.6783,37.78591 43.0355,-0.49749 39.5732,58.83082 73.4254,66.82197 31.0878,7.37297 27.213,-2.04424 101.3334,-53.73366 134.6288,-100.98407 151.7266,-19.51779 95.8628,69.73848 12.3849,72.75573 -21.4873,34.06609 -45.6255,9.9279 -94.5154,0.73612 -69.7422,39.5174 -6.6078,26.62992 28.8327,76.18869 12.0587,13.5717 -112.268,52.46865 -22.6004,-8.66121 -137.4219,-14.26668 -58.0054,26.88366 -15.494,68.819337 -1.5123,56.775522 -52.4088,35.204824 -108.5257,-1.932434 -105.3824,-32.541067 -13.4979,-33.18557 44.5671,-91.122472 23.668,-78.87176 9.1506,-80.33917 -84.8735,-47.55477 -73.387,34.62749 -86.44535,70.18973 -62.954,22.35346 -65.74631,44.2914 -56.10268,10.58215 -19.56658,-37.27276 7.3991,-49.557 39.77354,-46.29226 -16.71901,-53.06633 -75.54227,-15.04783 -82.92809,-19.94719 -69.61582,-74.97944 -63.65828,-86.51665 -80.87656,-29.7079 -48.22368,-44.702 -53.76482,-70.23504 -103.37978,-11.75871 -121.701636,-17.80865 -54.410813,28.0469 -11.409555,138.97125 29.433068,106.15278 59.009146,4.42229 47.94725,-5.28922 51.63156,5.37216 89.34966,54.57139 13.42516,23.62631 34.61365,42.61747 34.91324,38.49751 30.87925,95.32361 15.08047,47.89886 58.64166,44.38345 82.66803,63.692369 92.59528,25.443808 46.79546,-5.459238 94.37522,32.357449 76.10338,64.10164 -6.15251,65.712782 3.1495,110.9332 -0.27908,72.04996 -67.93594,41.60704 -53.46075,27.26851 -103.54741,39.70514 -47.60861,-43.32157 -23.63229,-49.39946 -124.07619,-57.30594 -155.15106,-11.55062 -89.60833,27.33558 -93.73316,13.54406 -66.921782,38.11437 -9.316423,43.97479 -19.201786,54.38668 12.090013,43.0079 -0.640059,34.73928 72.572682,70.64357 15.091185,114.85476 73.46645,26.90425 84.496,-20.30414 130.73119,13.97333 53.30384,3.66251 -8e-4,0 -2e-4,0 z"
       id="scene"
       sodipodi:nodetypes="cccccccccccccccccccccccccccccccccccccccccccccccccccccccccccccccccccccccccccccccccccccccccccccccccccccccccccccccccccccccccccccccccccccccccccccccccccccccccccccccccccccccccccccccccccccccccccccccccccc"
       inkscape:label="#path3680" />
    <rect
       style="fill:#0000ff;fill-opacity:1;stroke:none"
       id="start"
       width="80.460518"
       height="67.385689"
       x="487.69522"
       y="631.7818"
       inkscape:label="#rect3682" />
    <path
       sodipodi:type="arc"
       style="fill:#00ff00;fill-opacity:1;stroke:none"
       id="cargo"
       sodipodi:cx="1015.7084"
       sodipodi:cy="740.40356"
       sodipodi:rx="9.5964489"
       sodipodi:ry="9.5964489"
       d="m 1025.3048,740.40356 c 0,5.29998 -4.2965,9.59645 -9.5964,9.59645 -5.3,0 -9.5965,-4.29647 -9.5965,-9.59645 0,-5.29997 4.2965,-9.59644 9.5965,-9.59644 5.2999,0 9.5964,4.29647 9.5964,9.59644 z"
       transform="matrix(1.9912963,0,0,1.9912963,5.4285629,-756.33738)"
       inkscape:label="#path3684" />
    <path
       inkscape:label="#path3684"
       transform="matrix(1.9912963,0,0,1.9912963,-604.05988,-1879.2902)"
       d="m 1025.3048,740.40356 c 0,5.29998 -4.2965,9.59645 -9.5964,9.59645 -5.3,0 -9.5965,-4.29647 -9.5965,-9.59645 0,-5.29997 4.2965,-9.59644 9.5965,-9.59644 5.2999,0 9.5964,4.29647 9.5964,9.59644 z"
       sodipodi:ry="9.5964489"
       sodipodi:rx="9.5964489"
       sodipodi:cy="740.40356"
       sodipodi:cx="1015.7084"
       id="cargo2"
       style="fill:#00ff00;fill-opacity:1;stroke:none"
       sodipodi:type="arc" />
  </g>
</svg>
