<?xml version="1.0" encoding="UTF-8" standalone="no"?>
<!-- Created with Inkscape (http://www.inkscape.org/) -->

<svg
   xmlns:dc="http://purl.org/dc/elements/1.1/"
   xmlns:cc="http://creativecommons.org/ns#"
   xmlns:rdf="http://www.w3.org/1999/02/22-rdf-syntax-ns#"
   xmlns:svg="http://www.w3.org/2000/svg"
   xmlns="http://www.w3.org/2000/svg"
   xmlns:sodipodi="http://sodipodi.sourceforge.net/DTD/sodipodi-0.dtd"
   xmlns:inkscape="http://www.inkscape.org/namespaces/inkscape"
   width="2400"
   height="1500"
   id="svg2"
   version="1.1"
   inkscape:version="0.47 r22583"
   sodipodi:docname="cave.svg">
  <defs
     id="defs4">
    <inkscape:perspective
       sodipodi:type="inkscape:persp3d"
       inkscape:vp_x="0 : 526.18109 : 1"
       inkscape:vp_y="0 : 1000 : 0"
       inkscape:vp_z="744.09448 : 526.18109 : 1"
       inkscape:persp3d-origin="372.04724 : 350.78739 : 1"
       id="perspective10" />
    <inkscape:perspective
       id="perspective3041"
       inkscape:persp3d-origin="0.5 : 0.33333333 : 1"
       inkscape:vp_z="1 : 0.5 : 1"
       inkscape:vp_y="0 : 1000 : 0"
       inkscape:vp_x="0 : 0.5 : 1"
       sodipodi:type="inkscape:persp3d" />
    <inkscape:perspective
       id="perspective3672"
       inkscape:persp3d-origin="0.5 : 0.33333333 : 1"
       inkscape:vp_z="1 : 0.5 : 1"
       inkscape:vp_y="0 : 1000 : 0"
       inkscape:vp_x="0 : 0.5 : 1"
       sodipodi:type="inkscape:persp3d" />
  </defs>
  <sodipodi:namedview
     id="base"
     pagecolor="#ffffff"
     bordercolor="#666666"
     borderopacity="1.0"
     inkscape:pageopacity="0.0"
     inkscape:pageshadow="2"
     inkscape:zoom="0.24748737"
     inkscape:cx="2778.0501"
     inkscape:cy="949.25465"
     inkscape:document-units="px"
     inkscape:current-layer="layer1"
     showgrid="false"
     width="1000px"
     inkscape:window-width="1600"
     inkscape:window-height="819"
     inkscape:window-x="0"
     inkscape:window-y="24"
     inkscape:window-maximized="1" />
  <metadata
     id="metadata7">
    <rdf:RDF>
      <cc:Work
         rdf:about="">
        <dc:format>image/svg+xml</dc:format>
        <dc:type
           rdf:resource="http://purl.org/dc/dcmitype/StillImage" />
        <dc:title />
      </cc:Work>
    </rdf:RDF>
  </metadata>
  <g
     inkscape:label="Ebene 1"
     inkscape:groupmode="layer"
     id="layer1"
     transform="translate(0,750)">
    <path
       style="fill:#000000"
       d="m 80.5,-742.96875 0,18.46875 116.4375,17.03125 103.40625,11.75 53.75,70.21875 48.21875,44.71875 80.875,29.6875 63.65625,86.53125 69.625,74.96875 82.9375,19.96875 75.53125,15.03125 16.71875,53.0625 -39.78125,46.3125 -7.40625,49.53125 19.59375,37.28125 56.09375,-10.5625 65.75,-44.3125 62.9375,-22.34375 86.46875,-70.1875 73.375,-34.625 84.875,47.5625 -9.1563,80.3125 -23.6562,78.875 -44.5625,91.125 13.4687,33.1875 105.4063,32.53125 108.5313,1.9375 52.4062,-35.1875 1.5,-56.78125 15.5,-68.8125 58,-26.90625 137.4375,14.28125 22.5937,8.65625 112.25,-52.46875 -12.0624,-13.5625 -28.8126,-76.1875 6.5938,-26.625 69.75,-39.53125 94.5,-0.75 45.625,-9.90625 21.5,-34.0625 -12.375,-72.75 -95.875,-69.75 -151.7188,19.5 -134.625,101 -101.3437,53.71875 -27.2187,2.0625 -31.0938,-7.375 -73.4062,-66.8125 -39.5626,-58.84375 -43.0624,0.5 -67.6563,-37.78125 -148.4687,-6.125 L 814.21875,-595.75 642.875,-626.125 469.5,-637.40625 l -59.53125,-25.125 -19.03125,-65.5 21.21875,0.53125 0,-15.46875 -331.65625,0 z"
       id="scene2"
       inkscape:label="#scene" />
    <path
       style="fill:#000000"
       d="m 1947.5625,-742.96875 0,16.9375 309.6875,24.40625 89.5,38.40625 -35.2188,82.875 -76.4374,68.65625 -53,49.53125 32.8124,60.03125 103.7813,49.65625 44.5,15.875 20.7187,27.25 7.0938,85.15625 0,136.4375 -8.75,8.40625 -0.031,68.59375 8.7812,34.0625 -5.7188,23.59375 -60,37.71875 -13.5937,3.96875 -16.2813,88.75 7.9688,70.34375 32.375,0.40625 43.3125,3.03125 10.9375,2.6562 0.5312,62.6563 0.5626,62.6875 -6.9688,13.9375 -82.4688,86.3125 -80,82.9375 -20.7812,52.6875 8.6562,40.875 29.4688,13.875 76.1875,-1.5312 51.6875,28.7812 7.75,34.4062 -45.5625,12.0938 -58.25,1.4688 0,5.5312 124.1563,0 0,-746.71875 0,-746.75 -447.4063,0 z"
       id="scene4"
       inkscape:label="#scene" />
    <path
       style="fill:#000000"
       d="m 5.4375,-563.5 0,567.28125 0,746.71875 624.90625,0 0,-9.125 -2.4375,0.1875 -26,-13.0937 -33.5,-8.0626 -78.4375,-4.0624 -39.4375,23.625 -53.3125,-3.6563 L 266.5,722.3438 182,742.6562 108.53125,715.75 93.4375,600.875 20.875,530.25 21.5,495.5 9.40625,452.5 28.625,398.0938 l 9.3125,-43.9688 66.90625,-38.0938 93.75,-13.5624 89.59375,-27.3438 155.15625,11.5625 124.0625,57.3125 23.65625,49.4062 47.59375,43.3126 103.5625,-39.7188 53.4375,-27.25 67.9375,-41.625 0.28125,-72.0312 -3.125,-110.93755 6.125,-65.71875 -76.09375,-64.09375 -94.375,-32.375 L 649.625,-11.5625 557.03125,-37 l -82.6875,-63.6875 -58.625,-44.40625 -15.09375,-47.875 -30.875,-95.34375 -34.90625,-38.5 -34.625,-42.59375 -13.40625,-23.625 -89.375,-54.59375 -51.625,-5.375 -47.9375,5.3125 -59,-4.4375 L 9.4375,-558.28125 9.875,-563.5 l -4.4375,0 z"
       id="scene3"
       inkscape:label="#scene" />
    <rect
       style="fill:#0000ff;fill-opacity:1;stroke:none"
       id="start"
       width="80.460518"
       height="67.385689"
       x="487.69522"
       y="631.7818"
       inkscape:label="#start">
      <desc
         id="desc2886">xxx</desc>
    </rect>
    <path
       sodipodi:type="arc"
       style="fill:#00ff00;fill-opacity:1;stroke:none"
       id="cargo"
       sodipodi:cx="1015.7084"
       sodipodi:cy="740.40356"
       sodipodi:rx="9.5964489"
       sodipodi:ry="9.5964489"
       d="m 1025.3048,740.40356 c 0,5.29998 -4.2965,9.59645 -9.5964,9.59645 -5.3,0 -9.5965,-4.29647 -9.5965,-9.59645 0,-5.29997 4.2965,-9.59644 9.5965,-9.59644 5.2999,0 9.5964,4.29647 9.5964,9.59644 z"
       transform="matrix(1.9912963,0,0,1.9912963,5.4285629,-756.33738)"
       inkscape:label="#cargo" />
    <path
       inkscape:label="#cargo"
       transform="matrix(1.9912963,0,0,1.9912963,-604.05988,-1879.2902)"
       d="m 1025.3048,740.40356 c 0,5.29998 -4.2965,9.59645 -9.5964,9.59645 -5.3,0 -9.5965,-4.29647 -9.5965,-9.59645 0,-5.29997 4.2965,-9.59644 9.5965,-9.59644 5.2999,0 9.5964,4.29647 9.5964,9.59644 z"
       sodipodi:ry="9.5964489"
       sodipodi:rx="9.5964489"
       sodipodi:cy="740.40356"
       sodipodi:cx="1015.7084"
       id="cargo2"
       style="fill:#00ff00;fill-opacity:1;stroke:none"
       sodipodi:type="arc" />
    <path
       id="path2840"
       d="m 1936.7188,-105.78125 -65.4376,30.8125 -63.9062,37.90625 -9.8438,38.9375 12.75,29.9375 11.2188,14 L 1817.875,60 1742,138.0625 1593.5,183 l -105.5312,18.125 -101.5626,50.6875 -82.4687,51.0625 -142.5313,141.9688 -46.0624,69.1562 23.0624,72.75 12.625,34.5938 23.3126,51.1562 -8.25,60.875 -48.875,8.8125 0,8.3125 85,0 634.2187,0 0,-11.4375 -17.75,-0.7187 -26.75,-9.8126 -55.125,-41.7812 -94.0937,-36.9688 -78.1563,-16.125 2.2813,-32.6874 80.75,-91.625 122.125,-103.7188 104.5624,-68.1562 106.5313,-70.8126 88.5937,-49.4062 40.4376,7.5625 21.2187,-2.40625 23.6563,-63.3125 -11.3126,-78.65625 -7.3437,-8.40625 -19.9687,-50.6875 -60.2188,-99.1875 -49.125,-26.78125 -70.0312,-1.15625 z"
       style="fill:#000000"
       inkscape:label="#scene" />
  </g>
</svg>
