<?xml version="1.0" encoding="UTF-8" standalone="no"?>
<!-- Created with Inkscape (http://www.inkscape.org/) -->

<svg
   xmlns:dc="http://purl.org/dc/elements/1.1/"
   xmlns:cc="http://creativecommons.org/ns#"
   xmlns:rdf="http://www.w3.org/1999/02/22-rdf-syntax-ns#"
   xmlns:svg="http://www.w3.org/2000/svg"
   xmlns="http://www.w3.org/2000/svg"
   xmlns:xlink="http://www.w3.org/1999/xlink"
   xmlns:sodipodi="http://sodipodi.sourceforge.net/DTD/sodipodi-0.dtd"
   xmlns:inkscape="http://www.inkscape.org/namespaces/inkscape"
   width="2000"
   height="2000"
   id="svg2"
   version="1.1"
   inkscape:version="0.47 r22583"
   sodipodi:docname="cave3.svg">
  <defs
     id="defs4">
    <inkscape:perspective
       sodipodi:type="inkscape:persp3d"
       inkscape:vp_x="0 : 526.18109 : 1"
       inkscape:vp_y="0 : 1000 : 0"
       inkscape:vp_z="744.09448 : 526.18109 : 1"
       inkscape:persp3d-origin="372.04724 : 350.78739 : 1"
       id="perspective10" />
    <inkscape:perspective
       id="perspective2956"
       inkscape:persp3d-origin="0.5 : 0.33333333 : 1"
       inkscape:vp_z="1 : 0.5 : 1"
       inkscape:vp_y="0 : 1000 : 0"
       inkscape:vp_x="0 : 0.5 : 1"
       sodipodi:type="inkscape:persp3d" />
    <inkscape:perspective
       id="perspective3781"
       inkscape:persp3d-origin="0.5 : 0.33333333 : 1"
       inkscape:vp_z="1 : 0.5 : 1"
       inkscape:vp_y="0 : 1000 : 0"
       inkscape:vp_x="0 : 0.5 : 1"
       sodipodi:type="inkscape:persp3d" />
    <radialGradient
       inkscape:collect="always"
       xlink:href="#linearGradient3887"
       id="radialGradient3893"
       cx="913.58197"
       cy="683.81207"
       fx="913.58197"
       fy="683.81207"
       r="347.89655"
       gradientUnits="userSpaceOnUse" />
    <linearGradient
       id="linearGradient3887">
      <stop
         style="stop-color:#ffffff;stop-opacity:1;"
         offset="0"
         id="stop3889" />
      <stop
         style="stop-color:#000000;stop-opacity:1;"
         offset="1"
         id="stop3891" />
    </linearGradient>
    <radialGradient
       r="347.89655"
       fy="683.81207"
       fx="913.58197"
       cy="683.81207"
       cx="913.58197"
       gradientUnits="userSpaceOnUse"
       id="radialGradient3790"
       xlink:href="#linearGradient3887"
       inkscape:collect="always" />
    <radialGradient
       inkscape:collect="always"
       xlink:href="#linearGradient3887"
       id="radialGradient3817"
       gradientUnits="userSpaceOnUse"
       cx="913.58197"
       cy="683.81207"
       fx="913.58197"
       fy="683.81207"
       r="347.89655" />
    <inkscape:perspective
       id="perspective3827"
       inkscape:persp3d-origin="0.5 : 0.33333333 : 1"
       inkscape:vp_z="1 : 0.5 : 1"
       inkscape:vp_y="0 : 1000 : 0"
       inkscape:vp_x="0 : 0.5 : 1"
       sodipodi:type="inkscape:persp3d" />
    <inkscape:perspective
       id="perspective3946"
       inkscape:persp3d-origin="0.5 : 0.33333333 : 1"
       inkscape:vp_z="1 : 0.5 : 1"
       inkscape:vp_y="0 : 1000 : 0"
       inkscape:vp_x="0 : 0.5 : 1"
       sodipodi:type="inkscape:persp3d" />
    <inkscape:perspective
       id="perspective4026"
       inkscape:persp3d-origin="0.5 : 0.33333333 : 1"
       inkscape:vp_z="1 : 0.5 : 1"
       inkscape:vp_y="0 : 1000 : 0"
       inkscape:vp_x="0 : 0.5 : 1"
       sodipodi:type="inkscape:persp3d" />
    <inkscape:perspective
       id="perspective4026-8"
       inkscape:persp3d-origin="0.5 : 0.33333333 : 1"
       inkscape:vp_z="1 : 0.5 : 1"
       inkscape:vp_y="0 : 1000 : 0"
       inkscape:vp_x="0 : 0.5 : 1"
       sodipodi:type="inkscape:persp3d" />
    <inkscape:perspective
       id="perspective4026-7"
       inkscape:persp3d-origin="0.5 : 0.33333333 : 1"
       inkscape:vp_z="1 : 0.5 : 1"
       inkscape:vp_y="0 : 1000 : 0"
       inkscape:vp_x="0 : 0.5 : 1"
       sodipodi:type="inkscape:persp3d" />
    <inkscape:perspective
       id="perspective4026-6"
       inkscape:persp3d-origin="0.5 : 0.33333333 : 1"
       inkscape:vp_z="1 : 0.5 : 1"
       inkscape:vp_y="0 : 1000 : 0"
       inkscape:vp_x="0 : 0.5 : 1"
       sodipodi:type="inkscape:persp3d" />
  </defs>
  <sodipodi:namedview
     id="base"
     pagecolor="#000000"
     bordercolor="#666666"
     borderopacity="1.0"
     inkscape:pageopacity="1"
     inkscape:pageshadow="2"
     inkscape:zoom="0.125"
     inkscape:cx="-2834.9223"
     inkscape:cy="2993.6228"
     inkscape:document-units="px"
     inkscape:current-layer="layer1"
     showgrid="false"
     inkscape:window-width="1680"
     inkscape:window-height="968"
     inkscape:window-x="0"
     inkscape:window-y="25"
     inkscape:window-maximized="1" />
  <metadata
     id="metadata7">
    <rdf:RDF>
      <cc:Work
         rdf:about="">
        <dc:format>image/svg+xml</dc:format>
        <dc:type
           rdf:resource="http://purl.org/dc/dcmitype/StillImage" />
        <dc:title></dc:title>
      </cc:Work>
    </rdf:RDF>
  </metadata>
  <g
     inkscape:label="Ebene 1"
     inkscape:groupmode="layer"
     id="layer1"
     transform="translate(0,947.63782)">
    <path
       style="fill:#444444;fill-opacity:1;stroke:#eeeeee;stroke-width:1;stroke-miterlimit:4;stroke-opacity:1;stroke-dasharray:none"
       d="m 0.37483,1051.1783 4.5,-0.406 4.5,1.9393 -4.5,0.406 -4.5,-1.9393 z"
       id="path3862" />
    <path
       style="fill:#444444;fill-opacity:1;stroke:#eeeeee;stroke-width:1;stroke-miterlimit:4;stroke-opacity:1;stroke-dasharray:none"
       d="m 997.3154,1049.8676 10.0597,-31.5094 12.75,-0.6745 290.2933,-93.54286 2.5352,55.0004 43.3541,35.43926 60.5674,11.0417 103,16.5427 64.5,10.3502 -293.8482,0.4865 -295.3482,0.116 2.1369,-3.25 -2e-4,0 z"
       id="path3860"
       inkscape:label="#scene" />
    <path
       style="fill:#444444;fill-opacity:1;stroke:#eeeeee;stroke-width:1;stroke-miterlimit:4;stroke-opacity:1;stroke-dasharray:none"
       d="m 1824.6852,1051.6815 32,-25.9085 38.6897,-31.4285 84.0647,-76.55136 2.4587,-46.2006 -18.9168,-36.3984 -70.9331,-125.0765 -32.7363,-55.67 -20.4799,-16.60252 -159.4573,-29.2564 -45.3696,-7.5289 -38.2638,-0.3622 -4.8536,-2.9741 -2.7203,-3.5664 9.2322,-20.2698 97.9648,-458.7355 0.01,-22.465873 5.25,5.0633 26.8032,24.104473 28,26.0123 24.0593,50.2772 2.2863,27.4744 -6.5542,50 2.8284,58.2858 75.4904,60.0666 72.6686,50.6098 48.133,64.0378 20.1094,31.1687 5.9256,8.1687 0,252.58132 0,252.58126 -88.75,-0.032 -86.9397,-1.4043 3e-4,2e-4 z"
       id="path3858"
       inkscape:label="#scene" />
    <path
       style="fill:#444444;fill-opacity:1;stroke:#eeeeee;stroke-width:1;stroke-miterlimit:4;stroke-opacity:1;stroke-dasharray:none"
       d="m 664.87493,978.01684 -80.0667,-10.8743 -62.4333,-36.4908 -77.6101,-39.261 -36.641,12.0652 -31.1334,52.2263 -44.1155,12.144 -107.1676,-43.7086 -6.7943,-25.5 20.5829,-43.8714 50.6212,-21.6475 58.2601,-38.2064 77.9351,-104.5728 26.5316,-23 15.4712,37.9042 138.0598,158.4713 158.0089,103.2302 -41.9827,11.1498 -57.5262,-0.058 0,-2e-4 z"
       id="path3856"
       inkscape:label="#scene" />
    <path
       style="fill:#444444;fill-opacity:1;stroke:#eeeeee;stroke-width:1;stroke-miterlimit:4;stroke-opacity:1;stroke-dasharray:none"
       d="m 0.37483,652.76144 0,-104.64382 3.4618,0 62.0382,-9.0014 82.0001,-9.4003 66.0222,11.8166 43.6773,49.2234 0.4225,43.8617 -23.6622,36.52582 -61.9598,11.9758 -107.7593,20.0235 -60.5595,49.3687 -3.6813,4.8938 0,-104.6438 z"
       id="path3854"
       inkscape:label="#scene" />
    <path
       style="fill:#444444;fill-opacity:1;stroke:#eeeeee;stroke-width:1;stroke-miterlimit:4;stroke-opacity:1;stroke-dasharray:none"
       d="m 321.57663,429.09542 -41.744,-39.3422 -14.4645,-98.1356 -5.9371,-45.5 -6.0547,-46.5 -0.5121,-51.2768 26.0107,-33.1655 48.2767,-5.56839 28.7324,55.01069 13.4582,69.5 10.537,54.5 10.4879,54.5 -2.2484,58 -23.4299,22.805 -43.1122,5.1728 z"
       id="path3852"
       inkscape:label="#scene" />
    <path
       style="fill:#444444;fill-opacity:1;stroke:#eeeeee;stroke-width:1;stroke-miterlimit:4;stroke-opacity:1;stroke-dasharray:none"
       d="m 0.41083,-173.74739 -0.036,-250.36501 2.5318,1.65886 2.5317,1.65886 -1.6188,-3.79385 -2.5317,-6.10895 -0.3282,-140.1849 130.4153,87.51625 108,72.63395 80.7414,54.21826 35.2415,23.73655 -11.6685,29.39499 -23.0956,51.33653 -58.5958,-1.14555 -32.8843,53.30899 36.332,49.29729 31.5708,10.036 10.4039,53.666694 10.2072,53.99318 -37.0919,44.269057 -61.6607,-8.2276207 -77.3217,-17.7474363 -72.6784,18.1676063 -54.6173,48.5452837 -11.5669,21.7597 -2.2438,2.7403 -0.036,-250.365034 z"
       id="path3850"
       inkscape:label="#scene" />
    <path
       style="fill:#444444;fill-opacity:1;stroke:#eeeeee;stroke-width:1;stroke-miterlimit:4;stroke-opacity:1;stroke-dasharray:none"
       d="m 1986.8749,45.395574 -51,-48.7650624 -137.8566,-144.8619716 -26.0048,-87.44876 13.3168,-33.70748 -49.8301,-117.92061 -44.4321,-15.0157 87.3117,-91.34167 221.9951,0.8102 0,296.98655 -0.25,254.946274 -13.25,-13.68177 z"
       id="path3848"
       inkscape:label="#scene"
       sodipodi:nodetypes="cccccccccccc" />
    <path
       style="fill:#444444;fill-opacity:1;stroke:#eeeeee;stroke-width:1;stroke-miterlimit:4;stroke-opacity:1;stroke-dasharray:none"
       d="m 306.85123,-668.04889 -203.7057,-134.62906 -5.2156,-5.58567 -1.5953,-10.61876 -17.0409,-47.6733 -36.4189,-34.61237 -30.25,-26.33758 -12.25,-15.83515 0,-3.5416 368.7501,0.007 368.75,0.007 2.4317,3.57029 11.5,12.06523 85.2895,148.44037 0.5519,9.58956 -8.8866,2.74448 -57.3865,21.87217 -201.9689,140.82678 -61.0548,68.6409 -2.5237,3.23219 -198.9763,-132.16215 0,-3.3e-4 z"
       id="path3846"
       inkscape:label="#scene" />
    <path
       style="fill:#444444;fill-opacity:1;stroke:#eeeeee;stroke-width:1;stroke-miterlimit:4;stroke-opacity:1;stroke-dasharray:none"
       d="m 1449.4747,-580.4179 -55.3955,-55.2252 -243.1011,-138.69562 -83.6032,-18.02638 -4.5,-0.68986 -27.2457,-55.16371 -37.8784,-92.29841 -0.6521,-6.3653 262.7368,0 262.7367,0 -0.8487,11.75 8.282,70.41008 82.9795,127.00475 5.6069,6.38158 -159.9322,160.44072 -9.185,-9.52265 z"
       id="path2962"
       inkscape:label="#scene" />
    <path
       sodipodi:type="arc"
       style="opacity:0.67477202;fill:url(#radialGradient3790);fill-opacity:1;stroke:none"
       id="path2907"
       sodipodi:cx="913.58197"
       sodipodi:cy="683.81207"
       sodipodi:rx="347.89655"
       sodipodi:ry="347.89655"
       d="m 1261.4785,683.81207 a 347.89655,347.89655 0 1 1 -695.79308,0 347.89655,347.89655 0 1 1 695.79308,0 z"
       transform="translate(87.681227,-943.84003)"
       inkscape:label="#gravpoint" />
    <path
       inkscape:label="#gravpoint"
       transform="translate(83.33808,-228.73325)"
       d="m 1261.4785,683.81207 a 347.89655,347.89655 0 1 1 -695.79308,0 347.89655,347.89655 0 1 1 695.79308,0 z"
       sodipodi:ry="347.89655"
       sodipodi:rx="347.89655"
       sodipodi:cy="683.81207"
       sodipodi:cx="913.58197"
       id="path3815"
       style="opacity:0.67477202;fill:url(#radialGradient3817);fill-opacity:1;stroke:none"
       sodipodi:type="arc" />
    <path
       style="fill:#662222;fill-opacity:1;stroke:none"
       d="m 1009.2311,-310.17981 -30.2704,12.38699 -21.7057,13.74001 5.7152,40.11985 43.3726,17.0862 36.5892,-16.03606 2.3394,-28.90259 -4.6309,-28.43791 -31.4094,-9.95649 z"
       id="path3885"
       inkscape:label="#scene" />
    <path
       inkscape:label="#scene"
       id="path3841"
       d="m 1009.2311,-310.17981 -30.2704,12.38699 -21.7057,13.74001 5.7152,40.11985 43.3726,17.0862 36.5892,-16.03606 2.3394,-28.90259 -4.6309,-28.43791 -31.4094,-9.95649 z"
       style="fill:#662222;fill-opacity:1;stroke:none" />
    <path
       style="fill:#662222;fill-opacity:1;stroke:none"
       d="m 1009.2311,423.82019 -30.2704,12.38699 -21.7057,13.74001 5.7152,40.11985 43.3726,17.0862 36.5892,-16.03606 2.3394,-28.90259 -4.6309,-28.43791 -31.4094,-9.95649 z"
       id="path3864"
       inkscape:label="#scene" />
    <rect
       style="fill:#0000ff;fill-opacity:1;stroke:none"
       id="start"
       width="15.829659"
       height="13.25734"
       x="1866.6252"
       y="-512.62933"
       inkscape:label="#start" />
    <path
       inkscape:label="#cargo"
       d="m 1025.3048,740.40356 a 9.5964489,9.5964489 0 1 1 -19.1929,0 9.5964489,9.5964489 0 1 1 19.1929,0 z"
       sodipodi:ry="9.5964489"
       sodipodi:rx="9.5964489"
       sodipodi:cy="740.40356"
       sodipodi:cx="1015.7084"
       id="cargo2-2"
       style="fill:#00ff00;fill-opacity:1;stroke:none"
       sodipodi:type="arc"
       transform="translate(666.49866,250.44033)" />
    <path
       inkscape:label="#cargo"
       d="m 1025.3048,740.40356 a 9.5964489,9.5964489 0 1 1 -19.1929,0 9.5964489,9.5964489 0 1 1 19.1929,0 z"
       sodipodi:ry="9.5964489"
       sodipodi:rx="9.5964489"
       sodipodi:cy="740.40356"
       sodipodi:cx="1015.7084"
       id="cargo2-2-7"
       style="fill:#00ff00;fill-opacity:1;stroke:none"
       sodipodi:type="arc"
       transform="translate(-970.45354,263.16825)" />
    <path
       inkscape:label="#cargo"
       d="m 1025.3048,740.40356 a 9.5964489,9.5964489 0 1 1 -19.1929,0 9.5964489,9.5964489 0 1 1 19.1929,0 z"
       sodipodi:ry="9.5964489"
       sodipodi:rx="9.5964489"
       sodipodi:cy="740.40356"
       sodipodi:cx="1015.7084"
       id="cargo2-2-6"
       style="fill:#00ff00;fill-opacity:1;stroke:none"
       sodipodi:type="arc"
       transform="translate(-949.94744,-304.6385)" />
    <path
       inkscape:label="#cargo"
       d="m 1025.3048,740.40356 a 9.5964489,9.5964489 0 1 1 -19.1929,0 9.5964489,9.5964489 0 1 1 19.1929,0 z"
       sodipodi:ry="9.5964489"
       sodipodi:rx="9.5964489"
       sodipodi:cy="740.40356"
       sodipodi:cx="1015.7084"
       id="cargo2-2-5"
       style="fill:#00ff00;fill-opacity:1;stroke:none"
       sodipodi:type="arc"
       transform="translate(-960.55405,-1448.0302)" />
  </g>
</svg>
