<?xml version="1.0" encoding="UTF-8" standalone="no"?>
<!-- Created with Inkscape (http://www.inkscape.org/) -->

<svg
   xmlns:dc="http://purl.org/dc/elements/1.1/"
   xmlns:cc="http://creativecommons.org/ns#"
   xmlns:rdf="http://www.w3.org/1999/02/22-rdf-syntax-ns#"
   xmlns:svg="http://www.w3.org/2000/svg"
   xmlns="http://www.w3.org/2000/svg"
   xmlns:xlink="http://www.w3.org/1999/xlink"
   xmlns:sodipodi="http://sodipodi.sourceforge.net/DTD/sodipodi-0.dtd"
   xmlns:inkscape="http://www.inkscape.org/namespaces/inkscape"
   width="1600"
   height="1200"
   id="svg2"
   version="1.1"
   inkscape:version="0.47 r22583"
   sodipodi:docname="level-5.svg">
  <sodipodi:namedview
     id="base"
     pagecolor="#000000"
     bordercolor="#666666"
     borderopacity="1.0"
     inkscape:pageopacity="1"
     inkscape:pageshadow="2"
     inkscape:zoom="0.70710678"
     inkscape:cx="446.58366"
     inkscape:cy="682.96218"
     inkscape:document-units="px"
     inkscape:current-layer="layer1"
     showgrid="false"
     showguides="true"
     inkscape:guide-bbox="true"
     inkscape:window-width="1680"
     inkscape:window-height="968"
     inkscape:window-x="0"
     inkscape:window-y="25"
     inkscape:window-maximized="1" />
  <defs
     id="defs4">
    <linearGradient
       id="linearGradient3887">
      <stop
         id="stop3889"
         offset="0"
         style="stop-color:#ffffff;stop-opacity:1;" />
      <stop
         id="stop3891"
         offset="1"
         style="stop-color:#000000;stop-opacity:1;" />
    </linearGradient>
    <inkscape:path-effect
       fuse_tolerance="0"
       vertical_pattern="false"
       prop_units="false"
       tang_offset="0"
       normal_offset="0"
       spacing="0"
       scale_y_rel="false"
       prop_scale="1"
       copytype="single_stretched"
       pattern="m -196.85526,495.89308 a 280,280 0 0 1 -560,0 280,280 0 1 1 560,0 z"
       is_visible="true"
       id="path-effect3017"
       effect="skeletal" />
    <inkscape:perspective
       id="perspective10"
       inkscape:persp3d-origin="372.04724 : 350.78739 : 1"
       inkscape:vp_z="744.09448 : 526.18109 : 1"
       inkscape:vp_y="0 : 1000 : 0"
       inkscape:vp_x="0 : 526.18109 : 1"
       sodipodi:type="inkscape:persp3d" />
    <inkscape:perspective
       sodipodi:type="inkscape:persp3d"
       inkscape:vp_x="0 : 0.5 : 1"
       inkscape:vp_y="0 : 1000 : 0"
       inkscape:vp_z="1 : 0.5 : 1"
       inkscape:persp3d-origin="0.5 : 0.33333333 : 1"
       id="perspective2884" />
    <inkscape:perspective
       sodipodi:type="inkscape:persp3d"
       inkscape:vp_x="0 : 0.5 : 1"
       inkscape:vp_y="0 : 1000 : 0"
       inkscape:vp_z="1 : 0.5 : 1"
       inkscape:persp3d-origin="0.5 : 0.33333333 : 1"
       id="perspective2843" />
    <inkscape:perspective
       sodipodi:type="inkscape:persp3d"
       inkscape:vp_x="0 : 0.5 : 1"
       inkscape:vp_y="0 : 1000 : 0"
       inkscape:vp_z="1 : 0.5 : 1"
       inkscape:persp3d-origin="0.5 : 0.33333333 : 1"
       id="perspective2857" />
    <inkscape:perspective
       sodipodi:type="inkscape:persp3d"
       inkscape:vp_x="0 : 0.5 : 1"
       inkscape:vp_y="0 : 1000 : 0"
       inkscape:vp_z="1 : 0.5 : 1"
       inkscape:persp3d-origin="0.5 : 0.33333333 : 1"
       id="perspective2857-0" />
    <inkscape:perspective
       sodipodi:type="inkscape:persp3d"
       inkscape:vp_x="0 : 0.5 : 1"
       inkscape:vp_y="0 : 1000 : 0"
       inkscape:vp_z="1 : 0.5 : 1"
       inkscape:persp3d-origin="0.5 : 0.33333333 : 1"
       id="perspective2857-8" />
    <inkscape:perspective
       sodipodi:type="inkscape:persp3d"
       inkscape:vp_x="0 : 0.5 : 1"
       inkscape:vp_y="0 : 1000 : 0"
       inkscape:vp_z="1 : 0.5 : 1"
       inkscape:persp3d-origin="0.5 : 0.33333333 : 1"
       id="perspective2857-6" />
    <inkscape:perspective
       sodipodi:type="inkscape:persp3d"
       inkscape:vp_x="0 : 0.5 : 1"
       inkscape:vp_y="0 : 1000 : 0"
       inkscape:vp_z="1 : 0.5 : 1"
       inkscape:persp3d-origin="0.5 : 0.33333333 : 1"
       id="perspective2857-08" />
    <inkscape:perspective
       sodipodi:type="inkscape:persp3d"
       inkscape:vp_x="0 : 0.5 : 1"
       inkscape:vp_y="0 : 1000 : 0"
       inkscape:vp_z="1 : 0.5 : 1"
       inkscape:persp3d-origin="0.5 : 0.33333333 : 1"
       id="perspective2870" />
    <radialGradient
       gradientUnits="userSpaceOnUse"
       r="347.89655"
       fy="683.81207"
       fx="913.58197"
       cy="683.81207"
       cx="913.58197"
       id="radialGradient3893"
       xlink:href="#linearGradient3887"
       inkscape:collect="always" />
    <inkscape:perspective
       sodipodi:type="inkscape:persp3d"
       inkscape:vp_x="0 : 0.5 : 1"
       inkscape:vp_y="0 : 1000 : 0"
       inkscape:vp_z="1 : 0.5 : 1"
       inkscape:persp3d-origin="0.5 : 0.33333333 : 1"
       id="perspective3704" />
    <inkscape:perspective
       sodipodi:type="inkscape:persp3d"
       inkscape:vp_x="0 : 0.5 : 1"
       inkscape:vp_y="0 : 1000 : 0"
       inkscape:vp_z="1 : 0.5 : 1"
       inkscape:persp3d-origin="0.5 : 0.33333333 : 1"
       id="perspective3704-1" />
    <inkscape:perspective
       sodipodi:type="inkscape:persp3d"
       inkscape:vp_x="0 : 0.5 : 1"
       inkscape:vp_y="0 : 1000 : 0"
       inkscape:vp_z="1 : 0.5 : 1"
       inkscape:persp3d-origin="0.5 : 0.33333333 : 1"
       id="perspective3704-5" />
    <inkscape:perspective
       sodipodi:type="inkscape:persp3d"
       inkscape:vp_x="0 : 0.5 : 1"
       inkscape:vp_y="0 : 1000 : 0"
       inkscape:vp_z="1 : 0.5 : 1"
       inkscape:persp3d-origin="0.5 : 0.33333333 : 1"
       id="perspective3704-7" />
    <inkscape:perspective
       sodipodi:type="inkscape:persp3d"
       inkscape:vp_x="0 : 0.5 : 1"
       inkscape:vp_y="0 : 1000 : 0"
       inkscape:vp_z="1 : 0.5 : 1"
       inkscape:persp3d-origin="0.5 : 0.33333333 : 1"
       id="perspective3704-17" />
    <inkscape:perspective
       sodipodi:type="inkscape:persp3d"
       inkscape:vp_x="0 : 0.5 : 1"
       inkscape:vp_y="0 : 1000 : 0"
       inkscape:vp_z="1 : 0.5 : 1"
       inkscape:persp3d-origin="0.5 : 0.33333333 : 1"
       id="perspective3704-170" />
    <inkscape:perspective
       sodipodi:type="inkscape:persp3d"
       inkscape:vp_x="0 : 0.5 : 1"
       inkscape:vp_y="0 : 1000 : 0"
       inkscape:vp_z="1 : 0.5 : 1"
       inkscape:persp3d-origin="0.5 : 0.33333333 : 1"
       id="perspective2860" />
    <inkscape:perspective
       sodipodi:type="inkscape:persp3d"
       inkscape:vp_x="0 : 0.5 : 1"
       inkscape:vp_y="0 : 1000 : 0"
       inkscape:vp_z="1 : 0.5 : 1"
       inkscape:persp3d-origin="0.5 : 0.33333333 : 1"
       id="perspective2860-1" />
    <inkscape:perspective
       id="perspective4011"
       inkscape:persp3d-origin="0.5 : 0.33333333 : 1"
       inkscape:vp_z="1 : 0.5 : 1"
       inkscape:vp_y="0 : 1000 : 0"
       inkscape:vp_x="0 : 0.5 : 1"
       sodipodi:type="inkscape:persp3d" />
  </defs>
  <metadata
     id="metadata7">
    <rdf:RDF>
      <cc:Work
         rdf:about="">
        <dc:format>image/svg+xml</dc:format>
        <dc:type
           rdf:resource="http://purl.org/dc/dcmitype/StillImage" />
      </cc:Work>
    </rdf:RDF>
  </metadata>
  <g
     transform="translate(0,147.63782)"
     id="layer1"
     inkscape:groupmode="layer"
     inkscape:label="Ebene 1">
    <path
       inkscape:label="#gravpoint"
       transform="translate(6,-147.63782)"
       d="m 1261.4785,683.81207 c 0,192.13796 -155.7586,347.89653 -347.89653,347.89653 -192.13796,0 -347.89655,-155.75857 -347.89655,-347.89653 0,-192.13795 155.75859,-347.89654 347.89655,-347.89654 192.13793,0 347.89653,155.75859 347.89653,347.89654 z"
       sodipodi:ry="347.89655"
       sodipodi:rx="347.89655"
       sodipodi:cy="683.81207"
       sodipodi:cx="913.58197"
       id="path2907"
       style="fill:url(#radialGradient3893);fill-opacity:1;stroke:none;opacity:0.67477204"
       sodipodi:type="arc">
      <desc
         id="desc2920">{&quot;force&quot;:550}</desc>
    </path>
    <path
       transform="translate(489.01486,286.50277)"
       sodipodi:type="arc"
       style="fill:#00ff00;fill-opacity:1;stroke:none"
       id="cargo2"
       sodipodi:cx="1015.7084"
       sodipodi:cy="740.40356"
       sodipodi:rx="9.5964489"
       sodipodi:ry="9.5964489"
       d="m 1025.3048,740.40356 c 0,5.29998 -4.2965,9.59645 -9.5964,9.59645 -5.3,0 -9.5965,-4.29647 -9.5965,-9.59645 0,-5.29997 4.2965,-9.59644 9.5965,-9.59644 5.2999,0 9.5964,4.29647 9.5964,9.59644 z"
       inkscape:label="#cargo" />
    <path
       transform="translate(54.851292,283.67434)"
       sodipodi:type="arc"
       style="fill:#00ff00;fill-opacity:1;stroke:none"
       id="cargo2-2"
       sodipodi:cx="1015.7084"
       sodipodi:cy="740.40356"
       sodipodi:rx="9.5964489"
       sodipodi:ry="9.5964489"
       d="m 1025.3048,740.40356 c 0,5.29998 -4.2965,9.59645 -9.5964,9.59645 -5.3,0 -9.5965,-4.29647 -9.5965,-9.59645 0,-5.29997 4.2965,-9.59644 9.5965,-9.59644 5.2999,0 9.5964,4.29647 9.5964,9.59644 z"
       inkscape:label="#cargo" />
    <path
       transform="translate(-311.43002,285.08856)"
       sodipodi:type="arc"
       style="fill:#00ff00;fill-opacity:1;stroke:none"
       id="cargo2-7"
       sodipodi:cx="1015.7084"
       sodipodi:cy="740.40356"
       sodipodi:rx="9.5964489"
       sodipodi:ry="9.5964489"
       d="m 1025.3048,740.40356 c 0,5.29998 -4.2965,9.59645 -9.5964,9.59645 -5.3,0 -9.5965,-4.29647 -9.5965,-9.59645 0,-5.29997 4.2965,-9.59644 9.5965,-9.59644 5.2999,0 9.5964,4.29647 9.5964,9.59644 z"
       inkscape:label="#cargo" />
    <path
       transform="translate(-840,200)"
       sodipodi:type="arc"
       style="fill:#800000;fill-opacity:1;stroke:none"
       id="alien"
       sodipodi:cx="1015.7084"
       sodipodi:cy="740.40356"
       sodipodi:rx="9.5964489"
       sodipodi:ry="9.5964489"
       d="m 1025.3048,740.40356 c 0,5.29998 -4.2965,9.59645 -9.5964,9.59645 -5.3,0 -9.5965,-4.29647 -9.5965,-9.59645 0,-5.29997 4.2965,-9.59644 9.5965,-9.59644 5.2999,0 9.5964,4.29647 9.5964,9.59644 z"
       inkscape:label="#alien" />
    <path
       transform="translate(-957.72562,-461.6162)"
       sodipodi:type="arc"
       style="fill:#00ff00;fill-opacity:1;stroke:none"
       id="cargo2-0"
       sodipodi:cx="1015.7084"
       sodipodi:cy="740.40356"
       sodipodi:rx="9.5964489"
       sodipodi:ry="9.5964489"
       d="m 1025.3048,740.40356 c 0,5.29998 -4.2965,9.59645 -9.5964,9.59645 -5.3,0 -9.5965,-4.29647 -9.5965,-9.59645 0,-5.29997 4.2965,-9.59644 9.5965,-9.59644 5.2999,0 9.5964,4.29647 9.5964,9.59644 z"
       inkscape:label="#cargo" />
    <path
       transform="translate(-820,-564)"
       sodipodi:type="arc"
       style="opacity:0.6;fill:#00ff00;fill-opacity:1;stroke:none"
       id="path2834"
       sodipodi:cx="1240"
       sodipodi:cy="760"
       sodipodi:rx="280"
       sodipodi:ry="280"
       d="m 1520,760 c 0,154.63973 -125.3603,280 -280,280 -154.6397,0 -280,-125.36027 -280,-280 0,-154.63973 125.3603,-280 280,-280 154.6397,0 280,125.36027 280,280 z"
       inkscape:label="#sentinel" />
    <path
       inkscape:label="#scene"
       sodipodi:nodetypes="ccccccccccccccccccccccc"
       id="path3881"
       d="m 659.25633,106.44021 161.64917,27.73083 100.32459,-28.63459 22.32459,5.36541 -46.70168,-140.53835 41.2984,-101.53835 88.2983,-16.46298 -1026.4497,1.571 0,394.842 9.9601405,-32.15111 -0.8535607,-2.03051 26.2665012,-20.81424 35.105335,-9.50054 49.057134,8.65817 103.70231,11.99675 4.05786,3.86198 94.86311,-14.75922 66.90658,3.71039 2.65658,2.21038 50.47322,-7.06488 76.99648,-29.23143 60.66507,-43.09726 79.39957,-14.12345 z"
       style="fill:#818191;fill-opacity:1;stroke:none;stroke-opacity:1">
      <path
         inkscape:label="#scene"
         id="path3885"
         d="m 923.5689,488.47661 -30.27044,12.38699 -21.70568,13.74001 5.71514,40.11985 43.37264,17.0862 36.5892,-16.03606 2.33936,-28.90259 -4.63089,-28.43791 -31.40933,-9.95649 z"
         style="fill:#662222;fill-opacity:1;stroke:none" />
    </path>
    <path
       inkscape:label="#scene"
       id="path3879"
       d="m 513.57144,660.87804 -63.05878,-24.68162 -23.9463,-37.27786 -8.5001,-45.48495 -12.0507,-63.79105 -2.6762,-57.97427 85.8365,-52.37084 58.57569,15.75166 25.59936,10.67633 6.91925,1.69862 -3.88797,11.50478 -17.01366,77.50477 0,75 16.59625,76.24775 3.4728,10.24774 -2.18307,0.51642 -34.18307,2.96618 -29.5,-0.53366 z"
       style="fill:#818191;fill-opacity:1;stroke:none;stroke-opacity:1" />
    <path
       inkscape:label="#scene"
       id="path3877"
       d="m 0,393.48361 8.376457,64.45 52.695,49.39636 62.139603,36.69783 23.61776,41.74559 -5.47309,2.24127 -37.27004,78.28915 -55.869433,62.6298 -39.3948,27.5535 L 0,822.77881 0,393.48361 z"
       style="fill:#818191;fill-opacity:1;stroke:none;stroke-opacity:1"
       sodipodi:nodetypes="ccccccccccc" />
    <path
       style="fill:#818191;fill-opacity:1;stroke:none"
       d="m 1476.5714,759.35741 -47.5324,-30.2119 -19.591,-16.11851 0,-25.2785 16.3279,-55.18372 0.1066,-41.87935 -2.8935,-1.37935 -18.3306,-42.7533 -90.331,-36.64883 -34.4873,-11.86786 -8.6641,-85.81079 -38.3321,-91.9054 -6.3321,0.0946 30.1768,-64.99768 117.2694,-32.66974 154.8622,-11.62403 51.5893,-37.70844 19.5893,-103.70843 0,778.727 -66.7733,-61.32609 -53.4939,-28.63056 -3.1614,0.88088 0,0 0,0 0,0 0,0 z"
       id="path3875"
       sodipodi:nodetypes="cccccccccccccccccccccccccc"
       inkscape:label="#scene" />
    <path
       sodipodi:nodetypes="ccccccc"
       inkscape:label="#scene"
       id="path3873"
       d="m 1540.518,1044.7026 3.7544,-11.1345 48.7545,-51.13449 6.9731,-55.75041 0,127.25 -103.9825,-1.571 44.5005,-7.6596 z"
       style="fill:#818191;fill-opacity:1;stroke:none;stroke-opacity:1" />
    <path
       sodipodi:nodetypes="ccccccccccccccccc"
       inkscape:label="#scene"
       id="path3871"
       d="m 1191.4674,1049.2825 -3.5822,-52.96409 -0.475,-55.2672 -97.9314,-27.8774 -17.9074,-49.7712 74,-46.6753 65.7514,-68.5127 17.3959,22.2763 60.2435,34.3212 37.6092,18.3117 51.0694,65.8098 -4.0424,3.9489 0.9622,89.0511 18.8252,49.49999 52.6856,20.9286 -251.3973,1.581 -3.2067,-4.6607 z"
       style="fill:#818191;fill-opacity:1;stroke:none;stroke-opacity:1" />
    <path
       inkscape:label="#scene"
       id="path3869"
       d="m 798.04605,1049.6836 -28.22744,-62.64049 21.21241,-48.3048 25.34051,-57.607 102.69991,14.2844 71.13798,-6.1325 16.57648,46.476 -62.70658,52.8055 30.49212,53.28899 41.49996,11.9426 -217.32416,0.1373 -0.70119,-4.25 z"
       style="fill:#818191;fill-opacity:1;stroke:none;stroke-opacity:1" />
    <path
       inkscape:label="#scene"
       id="path3867"
       d="m 332.60916,1049.3587 -9.0483,-31.558 21.2729,-73.36709 -6.1675,-42.0959 -43.1388,-58.4041 -26.5694,-36.1626 7.951,-24.4667 80.6624,-40.8508 49.5,10.9562 29,19.6265 117.68804,78.3267 108.81194,31.0545 23.86311,12.132 -24.17546,47.3081 -25.24165,49.2463 -21.92727,60.57979 0.71453,2.25 -278.97854,0 -4.217,-4.5749 z"
       style="fill:#818191;fill-opacity:1;stroke:none;stroke-opacity:1" />
    <path
       inkscape:label="#scene"
       id="path3798"
       d="m 1.9375571,899.93361 43.0670999,15.004 57.329703,30.853 -2.5413,29.3887 -72.295103,70.34509 -12.5735,8.4092 -6.6765,0 -6.6764999,0 0.3661,-153.99999 z"
       style="fill:#818191;fill-opacity:1;stroke:none;stroke-opacity:1" />
    <rect
       inkscape:label="#start"
       y="186.34572"
       x="1434.8005"
       height="13.25734"
       width="15.829659"
       id="start"
       style="fill:#0000ff;fill-opacity:1;stroke:none" />
    <path
       transform="translate(0,-147.63782)"
       sodipodi:nodetypes="ccsccccccccccc"
       inkscape:label="#way-alien-0"
       id="path2898"
       d="m 186,1070 60,-420 0,0 206,-226 510,-8 254,160 26,244 L 956,988 702,902 637.5,687 714.25,491.125 571,395.25 155.75,493.375 252.5,739.5"
       style="fill:none;stroke:#ffffff;stroke-width:4;stroke-linecap:butt;stroke-linejoin:miter;stroke-miterlimit:4;stroke-opacity:1;stroke-dasharray:8, 16;stroke-dashoffset:0" />
    <path
       inkscape:label="#way-alien-1"
       transform="translate(0,-147.63782)"
       id="path2850"
       d="M 964,416 1150,280 1412,122"
       style="fill:none;stroke:#ffffff;stroke-width:4;stroke-linecap:butt;stroke-linejoin:miter;stroke-opacity:1;color:#000000;stroke-miterlimit:4;stroke-dasharray:8, 16;stroke-dashoffset:0;marker:none;visibility:visible;display:inline;overflow:visible;enable-background:accumulate" />
    <path
       inkscape:label="#way-alien-2"
       transform="translate(0,-147.63782)"
       id="path2873"
       d="m 1246,824 140,120 118,74"
       style="fill:none;stroke:#ffffff;stroke-width:4;stroke-linecap:butt;stroke-linejoin:miter;stroke-opacity:1;color:#000000;stroke-miterlimit:4;stroke-dasharray:8, 16;stroke-dashoffset:0;marker:none;visibility:visible;display:inline;overflow:visible;enable-background:accumulate" />
    <path
       style="fill:#818191;stroke:none;stroke-width:1px;stroke-linecap:butt;stroke-linejoin:miter;stroke-opacity:1;color:#000000;fill-opacity:1;fill-rule:nonzero;marker:none;visibility:visible;display:inline;overflow:visible;enable-background:accumulate"
       d="m 1600,131 -8,-46.000001 -46,-38 -9,4 -110,-14 -117,11 L 1236,8.9999994 1135,0 l 465,0 0,131 z"
       id="path4016"
       transform="translate(0,-147.63782)"
       sodipodi:nodetypes="cccccccccc"
       inkscape:label="#scene" />
  </g>
</svg>
