<?xml version="1.0" encoding="UTF-8" standalone="no"?>
<!-- Created with Inkscape (http://www.inkscape.org/) -->

<svg
   xmlns:dc="http://purl.org/dc/elements/1.1/"
   xmlns:cc="http://creativecommons.org/ns#"
   xmlns:rdf="http://www.w3.org/1999/02/22-rdf-syntax-ns#"
   xmlns:svg="http://www.w3.org/2000/svg"
   xmlns="http://www.w3.org/2000/svg"
   xmlns:sodipodi="http://sodipodi.sourceforge.net/DTD/sodipodi-0.dtd"
   xmlns:inkscape="http://www.inkscape.org/namespaces/inkscape"
   width="1200"
   height="1200"
   id="svg3798"
   version="1.1"
   inkscape:version="0.47 r22583"
   sodipodi:docname="level-1.svg">
  <defs
     id="defs3800">
    <inkscape:perspective
       sodipodi:type="inkscape:persp3d"
       inkscape:vp_x="0 : 526.18109 : 1"
       inkscape:vp_y="0 : 1000 : 0"
       inkscape:vp_z="744.09448 : 526.18109 : 1"
       inkscape:persp3d-origin="372.04724 : 350.78739 : 1"
       id="perspective3806" />
    <inkscape:perspective
       id="perspective3950"
       inkscape:persp3d-origin="0.5 : 0.33333333 : 1"
       inkscape:vp_z="1 : 0.5 : 1"
       inkscape:vp_y="0 : 1000 : 0"
       inkscape:vp_x="0 : 0.5 : 1"
       sodipodi:type="inkscape:persp3d" />
    <inkscape:perspective
       id="perspective4477"
       inkscape:persp3d-origin="0.5 : 0.33333333 : 1"
       inkscape:vp_z="1 : 0.5 : 1"
       inkscape:vp_y="0 : 1000 : 0"
       inkscape:vp_x="0 : 0.5 : 1"
       sodipodi:type="inkscape:persp3d" />
    <inkscape:perspective
       id="perspective4509"
       inkscape:persp3d-origin="0.5 : 0.33333333 : 1"
       inkscape:vp_z="1 : 0.5 : 1"
       inkscape:vp_y="0 : 1000 : 0"
       inkscape:vp_x="0 : 0.5 : 1"
       sodipodi:type="inkscape:persp3d" />
    <inkscape:perspective
       id="perspective4509-7"
       inkscape:persp3d-origin="0.5 : 0.33333333 : 1"
       inkscape:vp_z="1 : 0.5 : 1"
       inkscape:vp_y="0 : 1000 : 0"
       inkscape:vp_x="0 : 0.5 : 1"
       sodipodi:type="inkscape:persp3d" />
    <inkscape:perspective
       id="perspective4540"
       inkscape:persp3d-origin="0.5 : 0.33333333 : 1"
       inkscape:vp_z="1 : 0.5 : 1"
       inkscape:vp_y="0 : 1000 : 0"
       inkscape:vp_x="0 : 0.5 : 1"
       sodipodi:type="inkscape:persp3d" />
  </defs>
  <sodipodi:namedview
     id="base"
     pagecolor="#000000"
     bordercolor="#666666"
     borderopacity="1.0"
     inkscape:pageopacity="1"
     inkscape:pageshadow="2"
     inkscape:zoom="0.35355339"
     inkscape:cx="-78.639701"
     inkscape:cy="364.4249"
     inkscape:document-units="px"
     inkscape:current-layer="layer1"
     showgrid="false"
     inkscape:window-width="1680"
     inkscape:window-height="968"
     inkscape:window-x="0"
     inkscape:window-y="25"
     inkscape:window-maximized="1"
     showguides="true"
     inkscape:guide-bbox="true">
    <sodipodi:guide
       orientation="0,1"
       position="1350.574,1127.1282"
       id="guide3007" />
    <sodipodi:guide
       orientation="1,0"
       position="1134.1993,1062.0744"
       id="guide3009" />
  </sodipodi:namedview>
  <metadata
     id="metadata3803">
    <rdf:RDF>
      <cc:Work
         rdf:about="">
        <dc:format>image/svg+xml</dc:format>
        <dc:type
           rdf:resource="http://purl.org/dc/dcmitype/StillImage" />
        <dc:title />
      </cc:Work>
    </rdf:RDF>
  </metadata>
  <g
     inkscape:label="Ebene 1"
     inkscape:groupmode="layer"
     id="layer1"
     transform="translate(0,147.63783)">
    <path
       style="fill:#444444;fill-opacity:1"
       d="m 1.0000002,875.39487 0,-177.96727 108.2609098,-51.70336 95.32161,-17.78033 47.43904,26.0189 -5.1051,6.10213 49.95861,23.70746 95.45072,-0.3093 5.2946,-19.40119 72.92105,8.64265 93.42064,103.26657 -2.02822,3.11659 82.1175,128.27448 -18.71915,-2.19021 -41.34657,15.48746 -13.69048,39.92998 1.86586,39.92997 164.70982,39.6674 52.12836,12.4596 -787.9991998,0.7176 0,-177.96913 z"
       id="path4499"
       inkscape:label="#scene"
       sodipodi:nodetypes="ccccccccccccccccccccc" />
    <path
       style="fill:#444444;fill-opacity:1"
       d="m 896,1049.2594 44.25795,-51.02167 -24.3054,-127.03222 -10.63805,-105.17339 0.79319,-79.81066 106.39971,-145.28695 -2.4948,-3.8656 129.3608,-137.83884 42.6002,-119.8679 18.3669,17.28081 0.6595,756.71922 -312.5,-0.028 7.5,-4.0748 z"
       id="path4497"
       inkscape:label="#scene"
       sodipodi:nodetypes="ccccccccccccc" />
    <path
       style="fill:#444444;fill-opacity:1"
       d="M 0.5000002,280.73836 7.75,253.2661 l 59.817225,-73.60385 44.710595,-27.58641 95.98528,32.90417 119.79973,10.75599 7.89179,-60.96684 -3.42192,-0.15565 22.97337,-53.877911 5.59493,3.230798 25.39392,37.171933 23.9051,51.25731 69.65147,-14.04907 75.58475,35.00951 43.4114,65.76865 -4.47484,2.02923 -13.66722,58.59778 -140.0169,24.64892 -152.74481,-3.63534 -1.43372,6.87144 -142.14797,0.50748 -144.0621798,13.2354 0,-80.64128 z"
       id="path4495"
       inkscape:label="#scene"
       sodipodi:nodetypes="ccccccccccccccccccccccc" />
    <path
       style="fill:#444444;fill-opacity:1"
       d="m 1145.9541,-64.145867 -42.7271,-40.995983 -5.1,1.77588 -37.627,-43.83252 140.1679,-0.16544 -0.1681,236.295999 -31.162,-75.831861 -23.3837,-77.246075 z"
       id="path4493"
       inkscape:label="#scene"
       sodipodi:nodetypes="cccccccc" />
    <path
       style="fill:#444444;fill-opacity:1"
       d="M 0.2882308,-147.34494 727,-146.00466 678.44225,-105.62843 97.1011,-112.31225 0.50000019,-33.758909 0.2882308,-147.34494 z"
       id="path3956"
       inkscape:label="#scene"
       sodipodi:nodetypes="cccccc" />
    <rect
       style="fill:#c4c4c4;fill-opacity:0.67000002;stroke:none"
       id="rect3826"
       width="16.509071"
       height="18.009895"
       x="337.16711"
       y="636.4173"
       inkscape:label="#start" />
    <path
       transform="translate(-240.71934,190.33624)"
       sodipodi:type="arc"
       style="fill:#00ff00;fill-opacity:1;stroke:none"
       id="cargo2-0"
       sodipodi:cx="1015.7084"
       sodipodi:cy="740.40356"
       sodipodi:rx="9.5964489"
       sodipodi:ry="9.5964489"
       d="m 1025.3048,740.40356 c 0,5.29998 -4.2965,9.59645 -9.5964,9.59645 -5.3,0 -9.5965,-4.29647 -9.5965,-9.59645 0,-5.29997 4.2965,-9.59644 9.5965,-9.59644 5.2999,0 9.5964,4.29647 9.5964,9.59644 z"
       inkscape:label="#cargo" />
    <path
       transform="translate(-792.26263,-649.70662)"
       sodipodi:type="arc"
       style="fill:#00ff00;fill-opacity:1;stroke:none"
       id="cargo2-0-4"
       sodipodi:cx="1015.7084"
       sodipodi:cy="740.40356"
       sodipodi:rx="9.5964489"
       sodipodi:ry="9.5964489"
       d="m 1025.3048,740.40356 c 0,5.29998 -4.2965,9.59645 -9.5964,9.59645 -5.3,0 -9.5965,-4.29647 -9.5965,-9.59645 0,-5.29997 4.2965,-9.59644 9.5965,-9.59644 5.2999,0 9.5964,4.29647 9.5964,9.59644 z"
       inkscape:label="#cargo" />
    <path
       sodipodi:type="arc"
       style="opacity:0.6;fill:#00ff00;fill-opacity:1;stroke:none"
       id="path2834"
       sodipodi:cx="1240"
       sodipodi:cy="760"
       sodipodi:rx="280"
       sodipodi:ry="280"
       d="m 1520,760 a 280,280 0 1 1 -560,0 280,280 0 1 1 560,0 z"
       inkscape:label="#sentinel"
       transform="translate(-104.6518,-832.14215)" />
  </g>
</svg>
