<?xml version="1.0" encoding="UTF-8" standalone="no"?>
<!-- Created with Inkscape (http://www.inkscape.org/) -->

<svg
   xmlns:dc="http://purl.org/dc/elements/1.1/"
   xmlns:cc="http://creativecommons.org/ns#"
   xmlns:rdf="http://www.w3.org/1999/02/22-rdf-syntax-ns#"
   xmlns:svg="http://www.w3.org/2000/svg"
   xmlns="http://www.w3.org/2000/svg"
   xmlns:sodipodi="http://sodipodi.sourceforge.net/DTD/sodipodi-0.dtd"
   xmlns:inkscape="http://www.inkscape.org/namespaces/inkscape"
   width="1200"
   height="1200"
   id="svg3798"
   version="1.1"
   inkscape:version="0.47 r22583"
   sodipodi:docname="level-1.svg">
  <defs
     id="defs3800">
    <inkscape:perspective
       sodipodi:type="inkscape:persp3d"
       inkscape:vp_x="0 : 526.18109 : 1"
       inkscape:vp_y="0 : 1000 : 0"
       inkscape:vp_z="744.09448 : 526.18109 : 1"
       inkscape:persp3d-origin="372.04724 : 350.78739 : 1"
       id="perspective3806" />
    <inkscape:perspective
       id="perspective3950"
       inkscape:persp3d-origin="0.5 : 0.33333333 : 1"
       inkscape:vp_z="1 : 0.5 : 1"
       inkscape:vp_y="0 : 1000 : 0"
       inkscape:vp_x="0 : 0.5 : 1"
       sodipodi:type="inkscape:persp3d" />
    <inkscape:perspective
       id="perspective4477"
       inkscape:persp3d-origin="0.5 : 0.33333333 : 1"
       inkscape:vp_z="1 : 0.5 : 1"
       inkscape:vp_y="0 : 1000 : 0"
       inkscape:vp_x="0 : 0.5 : 1"
       sodipodi:type="inkscape:persp3d" />
    <inkscape:perspective
       id="perspective4509"
       inkscape:persp3d-origin="0.5 : 0.33333333 : 1"
       inkscape:vp_z="1 : 0.5 : 1"
       inkscape:vp_y="0 : 1000 : 0"
       inkscape:vp_x="0 : 0.5 : 1"
       sodipodi:type="inkscape:persp3d" />
    <inkscape:perspective
       id="perspective4509-7"
       inkscape:persp3d-origin="0.5 : 0.33333333 : 1"
       inkscape:vp_z="1 : 0.5 : 1"
       inkscape:vp_y="0 : 1000 : 0"
       inkscape:vp_x="0 : 0.5 : 1"
       sodipodi:type="inkscape:persp3d" />
    <inkscape:perspective
       id="perspective4540"
       inkscape:persp3d-origin="0.5 : 0.33333333 : 1"
       inkscape:vp_z="1 : 0.5 : 1"
       inkscape:vp_y="0 : 1000 : 0"
       inkscape:vp_x="0 : 0.5 : 1"
       sodipodi:type="inkscape:persp3d" />
  </defs>
  <sodipodi:namedview
     id="base"
     pagecolor="#000000"
     bordercolor="#666666"
     borderopacity="1.0"
     inkscape:pageopacity="1"
     inkscape:pageshadow="2"
     inkscape:zoom="0.99999999"
     inkscape:cx="-132.05144"
     inkscape:cy="555.37938"
     inkscape:document-units="px"
     inkscape:current-layer="layer1"
     showgrid="false"
     inkscape:window-width="1680"
     inkscape:window-height="968"
     inkscape:window-x="0"
     inkscape:window-y="25"
     inkscape:window-maximized="1"
     showguides="true"
     inkscape:guide-bbox="true">
    <sodipodi:guide
       orientation="1,0"
       position="1134.1993,1062.0744"
       id="guide3009" />
  </sodipodi:namedview>
  <metadata
     id="metadata3803">
    <rdf:RDF>
      <cc:Work
         rdf:about="">
        <dc:format>image/svg+xml</dc:format>
        <dc:type
           rdf:resource="http://purl.org/dc/dcmitype/StillImage" />
        <dc:title />
      </cc:Work>
    </rdf:RDF>
  </metadata>
  <g
     inkscape:label="Ebene 1"
     inkscape:groupmode="layer"
     id="layer1"
     transform="translate(0,147.63783)">
    <path
       style="fill:#444444;fill-opacity:1"
       d="m -155.56349,565.5367 7.14087,48.47272 -0.85912,8.47273 40.01408,49.84296 -5.4488,5.12249 76.575588,23.50727 39.1408722,-3.52727 42.2609098,-51.70336 95.32161,-17.78033 47.43904,26.0189 -5.1051,6.10213 49.95861,23.70746 161.45072,-0.3093 5.2946,-19.40119 72.92105,8.64265 93.42064,103.26657 -2.02822,3.11659 82.1175,128.27448 -18.71915,-2.19021 -41.34657,15.48746 -13.69048,39.92998 1.86586,39.92997 164.70982,39.6674 52.12836,12.4596 -943.9992,0.7176 -0.56349,-487.8273 z"
       id="path4499"
       inkscape:label="#scene"
       sodipodi:nodetypes="cccccccccccccccccccccccccc" />
    <path
       style="fill:#444444;fill-opacity:1"
       d="m 896,1049.2594 44.25795,-51.02167 -24.3054,-127.03222 -10.63805,-105.17339 0.79319,-79.81066 106.39971,-145.28695 -2.4948,-3.8656 129.3608,-137.83884 42.6002,-119.8679 18.3669,17.28081 0.6595,756.71922 -312.5,-0.028 7.5,-4.0748 z"
       id="path4497"
       inkscape:label="#scene"
       sodipodi:nodetypes="ccccccccccccc" />
    <path
       sodipodi:type="arc"
       style="opacity:0.6;fill:#00ff00;fill-opacity:1;stroke:none"
       id="path2834"
       sodipodi:cx="1240"
       sodipodi:cy="760"
       sodipodi:rx="280"
       sodipodi:ry="280"
       d="m 1520,760 c 0,154.63973 -125.3603,280 -280,280 -154.6397,0 -280,-125.36027 -280,-280 0,-154.63973 125.3603,-280 280,-280 154.6397,0 280,125.36027 280,280 z"
       inkscape:label="#sentinel"
       transform="translate(-104.6518,-832.14215)" />
    <path
       style="fill:#444444;fill-opacity:1"
       d="m 1145.9541,-64.145867 -42.7271,-40.995983 -3.1555,2.48299 -18.7759,-22.6254 -23.1953,-19.44341 -33.6003,-2.47082 176.1679,-0.16544 -0.1681,236.295999 -31.162,-75.831861 -23.3837,-77.246075 z"
       id="path4493"
       inkscape:label="#scene"
       sodipodi:nodetypes="cccccccccc" />
    <path
       style="fill:#444444;fill-opacity:1"
       d="m -155.562,-147.63783 -5e-4,0.28125 -0.15625,0 0.15625,0.875 5e-4,212.56275 L -141,8.2684195 -86.53125,-29.45033 -21.5,-65.26283 l 7.65625,6.53125 110.875,-51.46875 280.40625,6.09375 3.9375,-7.34375 154.53125,12.46875 137.59375,-40.59375 63.5,-7.5 -892.562,-0.5625 z"
       id="path2849"
       sodipodi:nodetypes="cccccccccccccccc"
       inkscape:label="#scene" />
    <path
       style="fill:#444444;fill-opacity:1"
       d="m 355.5,80.73717 -22.96875,53.875 3.4375,0.15625 -7.90625,60.96875 -119.8125,-10.75 -95.96875,-32.90625 -44.71875,27.59375 -59.8125,73.59375 -109.78125,-21.3125 -4.75,-39.4375 -17.21875,-7.53125 -31.562,-67.406 -5e-4,337.781 -0.21875,69.96875 8.96875,-51.78125 21.1875,-18.1875 8.625,0 0,-7.40625 35.125,-30.1875 5.3125,0.53125 77.0625,-56.90625 144.0625,-13.25 142.15625,-0.5 1.4375,-6.875 152.71875,3.625 140.03125,-24.65625 13.65625,-58.59375 4.5,-2.03125 -43.4375,-65.75 -75.5625,-35 -69.65625,14.03125 L 386.5,121.14342 361.09375,83.95592 355.5,80.73717 z"
       id="path3956"
       inkscape:label="#scene"
       sodipodi:nodetypes="cccccccccccccccccccccccccccccccccc" />
    <rect
       style="fill:#c4c4c4;fill-opacity:0.67000002;stroke:none"
       id="rect3826"
       width="16.509071"
       height="18.009895"
       x="292.16711"
       y="642.4173"
       inkscape:label="#start" />
    <path
       transform="translate(-240.71934,190.33624)"
       sodipodi:type="arc"
       style="fill:#00ff00;fill-opacity:1;stroke:none"
       id="cargo2-0"
       sodipodi:cx="1015.7084"
       sodipodi:cy="740.40356"
       sodipodi:rx="9.5964489"
       sodipodi:ry="9.5964489"
       d="m 1025.3048,740.40356 c 0,5.29998 -4.2965,9.59645 -9.5964,9.59645 -5.3,0 -9.5965,-4.29647 -9.5965,-9.59645 0,-5.29997 4.2965,-9.59644 9.5965,-9.59644 5.2999,0 9.5964,4.29647 9.5964,9.59644 z"
       inkscape:label="#cargo" />
    <path
       transform="translate(-792.26263,-649.70662)"
       sodipodi:type="arc"
       style="fill:#00ff00;fill-opacity:1;stroke:none"
       id="cargo2-0-4"
       sodipodi:cx="1015.7084"
       sodipodi:cy="740.40356"
       sodipodi:rx="9.5964489"
       sodipodi:ry="9.5964489"
       d="m 1025.3048,740.40356 c 0,5.29998 -4.2965,9.59645 -9.5964,9.59645 -5.3,0 -9.5965,-4.29647 -9.5965,-9.59645 0,-5.29997 4.2965,-9.59644 9.5965,-9.59644 5.2999,0 9.5964,4.29647 9.5964,9.59644 z"
       inkscape:label="#cargo" />
  </g>
</svg>
