<?xml version="1.0" encoding="UTF-8" standalone="no"?>
<!-- Created with Inkscape (http://www.inkscape.org/) -->

<svg
   xmlns:dc="http://purl.org/dc/elements/1.1/"
   xmlns:cc="http://creativecommons.org/ns#"
   xmlns:rdf="http://www.w3.org/1999/02/22-rdf-syntax-ns#"
   xmlns:svg="http://www.w3.org/2000/svg"
   xmlns="http://www.w3.org/2000/svg"
   xmlns:sodipodi="http://sodipodi.sourceforge.net/DTD/sodipodi-0.dtd"
   xmlns:inkscape="http://www.inkscape.org/namespaces/inkscape"
   width="1265"
   height="1763"
   id="svg2"
   version="1.1"
   inkscape:version="0.47 r22583"
   sodipodi:docname="level-3.svg">
  <defs
     id="defs4">
    <inkscape:perspective
       sodipodi:type="inkscape:persp3d"
       inkscape:vp_x="0 : 526.18109 : 1"
       inkscape:vp_y="0 : 1000 : 0"
       inkscape:vp_z="744.09448 : 526.18109 : 1"
       inkscape:persp3d-origin="372.04724 : 350.78739 : 1"
       id="perspective10" />
    <inkscape:perspective
       id="perspective2905"
       inkscape:persp3d-origin="0.5 : 0.33333333 : 1"
       inkscape:vp_z="1 : 0.5 : 1"
       inkscape:vp_y="0 : 1000 : 0"
       inkscape:vp_x="0 : 0.5 : 1"
       sodipodi:type="inkscape:persp3d" />
    <inkscape:perspective
       id="perspective3004"
       inkscape:persp3d-origin="0.5 : 0.33333333 : 1"
       inkscape:vp_z="1 : 0.5 : 1"
       inkscape:vp_y="0 : 1000 : 0"
       inkscape:vp_x="0 : 0.5 : 1"
       sodipodi:type="inkscape:persp3d" />
    <inkscape:perspective
       id="perspective3035"
       inkscape:persp3d-origin="0.5 : 0.33333333 : 1"
       inkscape:vp_z="1 : 0.5 : 1"
       inkscape:vp_y="0 : 1000 : 0"
       inkscape:vp_x="0 : 0.5 : 1"
       sodipodi:type="inkscape:persp3d" />
    <inkscape:perspective
       id="perspective3035-2"
       inkscape:persp3d-origin="0.5 : 0.33333333 : 1"
       inkscape:vp_z="1 : 0.5 : 1"
       inkscape:vp_y="0 : 1000 : 0"
       inkscape:vp_x="0 : 0.5 : 1"
       sodipodi:type="inkscape:persp3d" />
    <inkscape:perspective
       id="perspective3035-6"
       inkscape:persp3d-origin="0.5 : 0.33333333 : 1"
       inkscape:vp_z="1 : 0.5 : 1"
       inkscape:vp_y="0 : 1000 : 0"
       inkscape:vp_x="0 : 0.5 : 1"
       sodipodi:type="inkscape:persp3d" />
    <inkscape:perspective
       id="perspective3084"
       inkscape:persp3d-origin="0.5 : 0.33333333 : 1"
       inkscape:vp_z="1 : 0.5 : 1"
       inkscape:vp_y="0 : 1000 : 0"
       inkscape:vp_x="0 : 0.5 : 1"
       sodipodi:type="inkscape:persp3d" />
    <inkscape:perspective
       id="perspective2948"
       inkscape:persp3d-origin="0.5 : 0.33333333 : 1"
       inkscape:vp_z="1 : 0.5 : 1"
       inkscape:vp_y="0 : 1000 : 0"
       inkscape:vp_x="0 : 0.5 : 1"
       sodipodi:type="inkscape:persp3d" />
    <inkscape:perspective
       id="perspective2978"
       inkscape:persp3d-origin="0.5 : 0.33333333 : 1"
       inkscape:vp_z="1 : 0.5 : 1"
       inkscape:vp_y="0 : 1000 : 0"
       inkscape:vp_x="0 : 0.5 : 1"
       sodipodi:type="inkscape:persp3d" />
  </defs>
  <sodipodi:namedview
     id="base"
     pagecolor="#ffffff"
     bordercolor="#666666"
     borderopacity="1.0"
     inkscape:pageopacity="0.0"
     inkscape:pageshadow="2"
     inkscape:zoom="1"
     inkscape:cx="406.40912"
     inkscape:cy="411.22706"
     inkscape:document-units="px"
     inkscape:current-layer="layer1"
     showgrid="false"
     inkscape:window-width="1680"
     inkscape:window-height="968"
     inkscape:window-x="0"
     inkscape:window-y="25"
     inkscape:window-maximized="1"
     showguides="true"
     inkscape:guide-bbox="true" />
  <metadata
     id="metadata7">
    <rdf:RDF>
      <cc:Work
         rdf:about="">
        <dc:format>image/svg+xml</dc:format>
        <dc:type
           rdf:resource="http://purl.org/dc/dcmitype/StillImage" />
        <dc:title />
      </cc:Work>
    </rdf:RDF>
  </metadata>
  <g
     inkscape:label="Ebene 1"
     inkscape:groupmode="layer"
     id="layer1"
     transform="translate(0,710.63782)">
    <path
       style="fill:#444444;fill-opacity:1;stroke:none"
       d="m 0,1052.13 0,-186.9969 8.308505,41.1601 36.222512,24.9631 360.077413,-10.3923 -5.22326,6.1176 156.70418,44.3014 96.95366,-2.0142 93.41813,26.2701 -3.10378,5.1904 25.67172,29.8187 67.00267,21.6871 L 0,1052.13 z"
       id="path2937"
       inkscape:label="#scene"
       sodipodi:nodetypes="ccccccccccccc" />
    <path
       style="fill:#444444;fill-opacity:1;stroke:none"
       d="m 749.81822,794.24734 16.22815,-89.70726 74.31301,-23.22531 75.82893,70.72865 138.46899,18.90561 -17.6333,53.12877 -157.25757,18.38478 -97.99171,-20.73138 -0.8438,-0.6112 0,0 0,0 0,0 0,0 0,0 -31.1127,-26.87266 z"
       id="path2935"
       inkscape:label="#scene"
       sodipodi:nodetypes="ccccccccccccccc" />
    <path
       style="fill:#444448;fill-opacity:1;stroke:none"
       d="m 838.34375,43.23718 -27.9375,6.90625 -71.40625,93.625 -4,-16.40625 -52.75,-66.03125 -33.34375,-11.46875 -32.1875,3.15625 -24.40625,15.71875 -20.03125,26.53125 -11.1875,36.59375 3.8125,44.90625 23.21875,41.4375 31.53125,22.875 2.65625,1.15625 -16.65625,19.5 -36.5,-39.34375 -16.3125,-7.28125 -16.625,6.53125 -47.34375,45.3125 2,4.6875 -3.59375,27.18755 35.6875,41.7187 18.1875,8.2813 17.84375,-9.0626 6,-7.75 1.4375,1.6563 38.8125,47.125 17.71875,8.625 17.9375,-8.2187 -33.375,42.4374 -53.15625,-44.625 -21.15625,-4.5937 -15.625,14.9063 -33.90625,97.6874 2.375,-0.0937 5.9375,26.75 88.5,54.0313 28,-5.6563 76.28125,-87.7187 51.75,-58.4063 15.59375,26.125 29.9375,8.5625 0.875,-2.9062 21.96875,-9.8126 14.875,-13.375 -1.125,-17.6874 -18.59375,-38.7813 0.75,-0.875 15.125,-18.2187 59.8125,45.3124 17.34375,4.0626 15.09375,-9.5313 29.75,-43.4375 55.25,35.2188 17.8125,2.75 20.4375,-16.2813 -53.53125,-140.28125 -10.5625,28.5625 -51.4375,-26.8125 -18.6875,-1.0625 -13.3125,13.15625 -14.4375,36.875 -49.09375,-38.5 -29.90625,1.375 -1.1875,-2.9375 0.28125,-0.4375 49.875,-88 42.5625,20.34375 29.46875,-8.78125 27.875,-46.125 1.96875,-19.28125 -13.40625,-14 -89.5625,-37.90625 z"
       id="path3734"
       inkscape:label="#scene">
      <title
         id="title3774">greets to all haujobbers and friends</title>
    </path>
    <path
       style="fill:#444444;fill-opacity:1;stroke:none"
       d="m 1265,-150.32532 -11.6875,46.96875 -47.5625,54.9375 -43.4062,68.1875 5.5937,14.65625 -169.15625,135.875 -21.51593,55.51225 12.69184,79.8566 39.97974,59.48286 15.7819,-9.47671 33.75,141.25 17.5,65.3125 38.75,58.5938 16.5937,-2.1876 112.6875,-142.5622 0,-626.4065 z"
       id="path3772"
       sodipodi:nodetypes="cccccccccccccccc"
       inkscape:label="#scene" />
    <path
       style="fill:#444444;fill-opacity:1;stroke:none"
       d="M 209.71404,666.36206 94.69312,653.40905 19.34656,690.51211 0,831.61518 l 0,-431.072 0,0 0,-355.662 24.01823,45.29886 37.101398,-2.70068 66.600242,-86.50418 34.94252,-90.068651 -5.36256,-6.810246 115.52095,-121.702523 80.83053,-17.38867 37.77859,112.92914 5.8196,2.16899 -73.7336,53.527067 -49.05332,30.454823 -6.26551,34.72614 1.53673,112.0604 -77.43263,109.28313 -46.25135,117.02487 -51.252778,44.93803 -11.198962,111.50488 80.98849,23.02907 87.48281,68.05531 14.67798,59.27812 -50.96068,15.7623 -6.07264,6.6147 z"
       id="path2933"
       inkscape:label="#scene"
       sodipodi:nodetypes="ccccccccccccccccccccccccccccc" />
    <path
       style="fill:#444444;fill-opacity:1"
       d="m 823.45992,-171.02601 -35.12033,-48.20364 3.71803,-37.19519 151.22284,-135.86877 152.11144,-20.43439 88.0557,-38.21719 44.0557,-85.2172 -49.2369,-60.62811 -8.2368,-66.62812 -61.4738,-36.25622 -120.858,-8.96298 277.3022,0 0,496.713 -10.6782,-26.0711 -25.1961,-93.03555 -54.1961,-26.03554 -53.0807,33.6603 -8.0807,-11.3397 -56.1442,-3.45691 -66.37489,2.02951 -122.32867,131.08228 -45.46052,34.06552 z"
       id="path2925"
       inkscape:label="#scene"
       sodipodi:nodetypes="cccccccccccccccccccccc" />
    <path
       style="fill:#444444;fill-opacity:1;stroke:none"
       d="m 0,-469.98782 0,-87.419 0,-151.231 349.32452,0 -76.73654,11.91308 -31.43325,40.00401 -3.59435,-2.8679 -58.96906,22.10311 -47.57237,52.42239 -9.55982,33.37985 L 0,-469.98782 z"
       id="path2923"
       inkscape:label="#scene"
       sodipodi:nodetypes="ccccccccccc" />
    <path
       style="fill:#444444;fill-opacity:1;stroke:none"
       d="m 633.20359,-426.68799 -70.50597,-114.86662 5.33159,-85.04731 -63.66841,-67.0473 -81.22575,-14.9886 488.57497,0 -70.8987,35.25281 -32.8987,117.78983 -174.70903,128.90719 z"
       id="path2895"
       sodipodi:nodetypes="ccccccccc"
       inkscape:label="#scene" />
    <rect
       style="fill:#000000;fill-opacity:0.67000002;stroke:none"
       id="rect3826"
       width="16.509071"
       height="18.009895"
       x="173.11806"
       y="891.56189"
       inkscape:label="#start" />
    <path
       transform="translate(-271.70837,-687.04138)"
       sodipodi:type="arc"
       style="fill:#00ff00;fill-opacity:1;stroke:none"
       id="cargo2"
       sodipodi:cx="1015.7084"
       sodipodi:cy="740.40356"
       sodipodi:rx="9.5964489"
       sodipodi:ry="9.5964489"
       d="m 1025.3048,740.40356 c 0,5.29998 -4.2965,9.59645 -9.5964,9.59645 -5.3,0 -9.5965,-4.29647 -9.5965,-9.59645 0,-5.29997 4.2965,-9.59644 9.5965,-9.59644 5.2999,0 9.5964,4.29647 9.5964,9.59644 z"
       inkscape:label="#cargo" />
    <path
       sodipodi:type="arc"
       style="opacity:0.6;fill:#00ff00;fill-opacity:1;stroke:none"
       id="path2834"
       sodipodi:cx="1240"
       sodipodi:cy="760"
       sodipodi:rx="280"
       sodipodi:ry="280"
       d="m 1520,760 c 0,154.63973 -125.3603,280 -280,280 -154.6397,0 -280,-125.36027 -280,-280 0,-154.63973 125.3603,-280 280,-280 154.6397,0 280,125.36027 280,280 z"
       transform="translate(-415,-931.63782)"
       inkscape:label="#sentinel" />
    <path
       transform="translate(-35.708375,-25.04138)"
       sodipodi:type="arc"
       style="fill:#00ff00;fill-opacity:1;stroke:none"
       id="cargo2-0"
       sodipodi:cx="1015.7084"
       sodipodi:cy="740.40356"
       sodipodi:rx="9.5964489"
       sodipodi:ry="9.5964489"
       d="m 1025.3048,740.40356 c 0,5.29998 -4.2965,9.59645 -9.5964,9.59645 -5.3,0 -9.5965,-4.29647 -9.5965,-9.59645 0,-5.29997 4.2965,-9.59644 9.5965,-9.59644 5.2999,0 9.5964,4.29647 9.5964,9.59644 z"
       inkscape:label="#cargo" />
    <path
       transform="translate(-893.70837,-1192.0414)"
       sodipodi:type="arc"
       style="fill:#00ff00;fill-opacity:1;stroke:none"
       id="cargo2-8"
       sodipodi:cx="1015.7084"
       sodipodi:cy="740.40356"
       sodipodi:rx="9.5964489"
       sodipodi:ry="9.5964489"
       d="m 1025.3048,740.40356 c 0,5.29998 -4.2965,9.59645 -9.5964,9.59645 -5.3,0 -9.5965,-4.29647 -9.5965,-9.59645 0,-5.29997 4.2965,-9.59644 9.5965,-9.59644 5.2999,0 9.5964,4.29647 9.5964,9.59644 z"
       inkscape:label="#cargo" />
    <path
       style="color:#000000;fill:#444444;fill-opacity:1;fill-rule:nonzero;stroke:none;stroke-width:1px;marker:none;visibility:visible;display:inline;overflow:visible;enable-background:accumulate"
       d="m 1265,595.36218 -4,51 -22,40 -3,24 7,-3 -11,76 -30,153.00002 -67,46 -116,6 4,7 -46.53553,48.2825 L 909,1052.13 l 356,2e-4 0,-456.76802 z"
       id="path2983"
       sodipodi:nodetypes="cccccccccccccc"
       inkscape:label="#scene" />
  </g>
</svg>
